<svg id="SvgjsSvg1006" width="1788" height="961" xmlns="http://www.w3.org/2000/svg" version="1.1" xmlns:xlink="http://www.w3.org/1999/xlink" xmlns:svgjs="http://svgjs.com/svgjs"><defs id="SvgjsDefs1007"><marker id="SvgjsMarker1080" markerWidth="16" markerHeight="12" refX="16" refY="6" viewBox="0 0 16 12" orient="auto" markerUnits="userSpaceOnUse"><path id="SvgjsPath1081" d="M0,2 L14,6 L0,11 L0,2" fill="#33ffff" stroke="#33ffff" stroke-width="2"></path></marker><marker id="SvgjsMarker1084" markerWidth="16" markerHeight="12" refX="16" refY="6" viewBox="0 0 16 12" orient="auto" markerUnits="userSpaceOnUse"><path id="SvgjsPath1085" d="M0,2 L14,6 L0,11 L0,2" fill="#33ffff" stroke="#33ffff" stroke-width="2"></path></marker><marker id="SvgjsMarker1088" markerWidth="16" markerHeight="12" refX="16" refY="6" viewBox="0 0 16 12" orient="auto" markerUnits="userSpaceOnUse"><path id="SvgjsPath1089" d="M0,2 L14,6 L0,11 L0,2" fill="#33ffff" stroke="#33ffff" stroke-width="2"></path></marker><marker id="SvgjsMarker1104" markerWidth="16" markerHeight="12" refX="16" refY="6" viewBox="0 0 16 12" orient="auto" markerUnits="userSpaceOnUse"><path id="SvgjsPath1105" d="M0,2 L14,6 L0,11 L0,2" fill="#33ffff" stroke="#33ffff" stroke-width="2"></path></marker><marker id="SvgjsMarker1122" markerWidth="16" markerHeight="12" refX="16" refY="6" viewBox="0 0 16 12" orient="auto" markerUnits="userSpaceOnUse"><path id="SvgjsPath1123" d="M0,2 L14,6 L0,11 L0,2" fill="#6666ff" stroke="#6666ff" stroke-width="2"></path></marker><marker id="SvgjsMarker1126" markerWidth="16" markerHeight="12" refX="16" refY="6" viewBox="0 0 16 12" orient="auto" markerUnits="userSpaceOnUse"><path id="SvgjsPath1127" d="M0,2 L14,6 L0,11 L0,2" fill="#6666ff" stroke="#6666ff" stroke-width="2"></path></marker><marker id="SvgjsMarker1136" markerWidth="16" markerHeight="12" refX="16" refY="6" viewBox="0 0 16 12" orient="auto" markerUnits="userSpaceOnUse"><path id="SvgjsPath1137" d="M0,2 L14,6 L0,11 L0,2" fill="#33ffff" stroke="#33ffff" stroke-width="2"></path></marker><marker id="SvgjsMarker1140" markerWidth="16" markerHeight="12" refX="16" refY="6" viewBox="0 0 16 12" orient="auto" markerUnits="userSpaceOnUse"><path id="SvgjsPath1141" d="M0,2 L14,6 L0,11 L0,2" fill="#3333ff" stroke="#3333ff" stroke-width="2"></path></marker><marker id="SvgjsMarker1144" markerWidth="16" markerHeight="12" refX="16" refY="6" viewBox="0 0 16 12" orient="auto" markerUnits="userSpaceOnUse"><path id="SvgjsPath1145" d="M0,2 L14,6 L0,11 L0,2" fill="#3333ff" stroke="#3333ff" stroke-width="2"></path></marker><marker id="SvgjsMarker1166" markerWidth="16" markerHeight="12" refX="16" refY="6" viewBox="0 0 16 12" orient="auto" markerUnits="userSpaceOnUse"><path id="SvgjsPath1167" d="M0,2 L14,6 L0,11 L0,2" fill="#ff9999" stroke="#ff9999" stroke-width="2"></path></marker><marker id="SvgjsMarker1216" markerWidth="16" markerHeight="12" refX="16" refY="6" viewBox="0 0 16 12" orient="auto" markerUnits="userSpaceOnUse"><path id="SvgjsPath1217" d="M0,2 L14,6 L0,11 L0,2" fill="#ff3333" stroke="#ff3333" stroke-width="2"></path></marker><marker id="SvgjsMarker1220" markerWidth="16" markerHeight="12" refX="16" refY="6" viewBox="0 0 16 12" orient="auto" markerUnits="userSpaceOnUse"><path id="SvgjsPath1221" d="M0,2 L14,6 L0,11 L0,2" fill="#ff3333" stroke="#ff3333" stroke-width="2"></path></marker><marker id="SvgjsMarker1224" markerWidth="16" markerHeight="12" refX="16" refY="6" viewBox="0 0 16 12" orient="auto" markerUnits="userSpaceOnUse"><path id="SvgjsPath1225" d="M0,2 L14,6 L0,11 L0,2" fill="#ff3333" stroke="#ff3333" stroke-width="2"></path></marker><marker id="SvgjsMarker1234" markerWidth="16" markerHeight="12" refX="16" refY="6" viewBox="0 0 16 12" orient="auto" markerUnits="userSpaceOnUse"><path id="SvgjsPath1235" d="M0,2 L14,6 L0,11 L0,2" fill="#ff3333" stroke="#ff3333" stroke-width="2"></path></marker><marker id="SvgjsMarker1244" markerWidth="16" markerHeight="12" refX="16" refY="6" viewBox="0 0 16 12" orient="auto" markerUnits="userSpaceOnUse"><path id="SvgjsPath1245" d="M0,2 L14,6 L0,11 L0,2" fill="#ff9999" stroke="#ff9999" stroke-width="2"></path></marker><marker id="SvgjsMarker1260" markerWidth="16" markerHeight="12" refX="16" refY="6" viewBox="0 0 16 12" orient="auto" markerUnits="userSpaceOnUse"><path id="SvgjsPath1261" d="M0,2 L14,6 L0,11 L0,2" fill="#ff3333" stroke="#ff3333" stroke-width="2"></path></marker><marker id="SvgjsMarker1264" markerWidth="16" markerHeight="12" refX="16" refY="6" viewBox="0 0 16 12" orient="auto" markerUnits="userSpaceOnUse"><path id="SvgjsPath1265" d="M0,2 L14,6 L0,11 L0,2" fill="#ff3333" stroke="#ff3333" stroke-width="2"></path></marker><marker id="SvgjsMarker1290" markerWidth="16" markerHeight="12" refX="16" refY="6" viewBox="0 0 16 12" orient="auto" markerUnits="userSpaceOnUse"><path id="SvgjsPath1291" d="M0,2 L14,6 L0,11 L0,2" fill="#ff3333" stroke="#ff3333" stroke-width="2"></path></marker><marker id="SvgjsMarker1294" markerWidth="16" markerHeight="12" refX="16" refY="6" viewBox="0 0 16 12" orient="auto" markerUnits="userSpaceOnUse"><path id="SvgjsPath1295" d="M0,2 L14,6 L0,11 L0,2" fill="#000000" stroke="#000000" stroke-width="2"></path></marker><marker id="SvgjsMarker1302" markerWidth="16" markerHeight="12" refX="16" refY="6" viewBox="0 0 16 12" orient="auto" markerUnits="userSpaceOnUse"><path id="SvgjsPath1303" d="M0,2 L14,6 L0,11 L0,2" fill="#000000" stroke="#000000" stroke-width="2"></path></marker><marker id="SvgjsMarker1368" markerWidth="16" markerHeight="12" refX="16" refY="6" viewBox="0 0 16 12" orient="auto" markerUnits="userSpaceOnUse"><path id="SvgjsPath1369" d="M0,2 L14,6 L0,11 L0,2" fill="#ff00ff" stroke="#ff00ff" stroke-width="2"></path></marker><marker id="SvgjsMarker1390" markerWidth="16" markerHeight="12" refX="16" refY="6" viewBox="0 0 16 12" orient="auto" markerUnits="userSpaceOnUse"><path id="SvgjsPath1391" d="M0,2 L14,6 L0,11 L0,2" fill="#323232" stroke="#323232" stroke-width="2"></path></marker></defs><g id="SvgjsG1008" transform="translate(1483,25)"><path id="SvgjsPath1009" d="M 0 0L 250 0L 250 708L 0 708Z" stroke="#ff00ff" stroke-width="2" fill="none"></path><path id="SvgjsPath1010" d="M 0 0L 250 0L 250 40L 0 40Z" stroke="#ff00ff" stroke-width="2" fill-opacity="1" fill="#ffffff"></path><g id="SvgjsG1011"><text id="SvgjsText1012" font-family="微软雅黑" text-anchor="middle" font-size="16px" width="156" fill="#323232" font-weight="400" align="middle" anchor="middle" family="微软雅黑" size="16px" weight="400" font-style="" y="7.6" transform="rotate(0)"><tspan id="SvgjsTspan1013" dy="20" x="125"><tspan id="SvgjsTspan1014" style="text-decoration:;">4. git merge new-branch</tspan></tspan></text></g></g><g id="SvgjsG1015" transform="translate(967,25)"><path id="SvgjsPath1016" d="M 0 0L 504 0L 504 707L 0 707Z" stroke="#ff3333" stroke-width="2" fill="none"></path><path id="SvgjsPath1017" d="M 0 0L 504 0L 504 40L 0 40Z" stroke="#ff3333" stroke-width="2" fill-opacity="1" fill="#ffffff"></path><g id="SvgjsG1018"><text id="SvgjsText1019" font-family="微软雅黑" text-anchor="middle" font-size="16px" width="223" fill="#323232" font-weight="400" align="middle" anchor="middle" family="微软雅黑" size="16px" weight="400" font-style="" y="7.6" transform="rotate(0)"><tspan id="SvgjsTspan1020" dy="20" x="252"><tspan id="SvgjsTspan1021" style="text-decoration:;">3. git branch / git add / git commit </tspan></tspan></text></g></g><g id="SvgjsG1022" transform="translate(25,484)"><path id="SvgjsPath1023" d="M 0 0L 1738 0L 1738 98L 0 98Z" stroke="#007fff" stroke-width="2" fill="none"></path><path id="SvgjsPath1024" d="M 0 0L 40 0L 40 98L 0 98Z" stroke="#007fff" stroke-width="2" fill-opacity="1" fill="#ffff00"></path><g id="SvgjsG1025"><text id="SvgjsText1026" font-family="微软雅黑" text-anchor="middle" font-size="16px" width="60" fill="#323232" font-weight="400" align="middle" anchor="middle" family="微软雅黑" size="16px" weight="400" font-style="" y="7.6" transform="rotate(270)"><tspan id="SvgjsTspan1027" dy="20" x="-49"><tspan id="SvgjsTspan1028" style="text-decoration:;">1. git add</tspan></tspan></text></g></g><g id="SvgjsG1029" transform="translate(569,28)"><path id="SvgjsPath1030" d="M 0 0L 389 0L 389 707L 0 707Z" stroke="#3333ff" stroke-width="2" fill="none"></path><path id="SvgjsPath1031" d="M 0 0L 389 0L 389 40L 0 40Z" stroke="#3333ff" stroke-width="2" fill-opacity="1" fill="#ffffff"></path><g id="SvgjsG1032"><text id="SvgjsText1033" font-family="微软雅黑" text-anchor="middle" font-size="16px" width="142" fill="#323232" font-weight="400" align="middle" anchor="middle" family="微软雅黑" size="16px" weight="400" font-style="" y="7.6" transform="rotate(0)"><tspan id="SvgjsTspan1034" dy="20" x="194.5"><tspan id="SvgjsTspan1035" style="text-decoration:;">2. git add / git commit</tspan></tspan></text></g></g><g id="SvgjsG1036" transform="translate(118,26)"><path id="SvgjsPath1037" d="M 0 0L 437 0L 437 711L 0 711Z" stroke="#33ffff" stroke-width="2" fill="none"></path><path id="SvgjsPath1038" d="M 0 0L 437 0L 437 40L 0 40Z" stroke="#33ffff" stroke-width="2" fill-opacity="1" fill="#ffffff"></path><g id="SvgjsG1039"><text id="SvgjsText1040" font-family="微软雅黑" text-anchor="middle" font-size="16px" width="142" fill="#323232" font-weight="400" align="middle" anchor="middle" family="微软雅黑" size="16px" weight="400" font-style="" y="7.6" transform="rotate(0)"><tspan id="SvgjsTspan1041" dy="20" x="218.5"><tspan id="SvgjsTspan1042" style="text-decoration:;">1. git add / git commit</tspan></tspan></text></g></g><g id="SvgjsG1043" transform="translate(25,74)"><path id="SvgjsPath1044" d="M 0 0L 1738 0L 1738 381.5L 0 381.5Z" stroke="#323232" stroke-width="2" fill="none"></path><path id="SvgjsPath1045" d="M 0 0L 40 0L 40 381.5L 0 381.5Z" stroke="#323232" stroke-width="2" fill-opacity="1" fill="#ff3333"></path><g id="SvgjsG1046"><text id="SvgjsText1047" font-family="微软雅黑" text-anchor="middle" font-size="16px" width="86" fill="#323232" font-weight="400" align="middle" anchor="middle" family="微软雅黑" size="16px" weight="400" font-style="" y="7.6" transform="rotate(270)"><tspan id="SvgjsTspan1048" dy="20" x="-190.5"><tspan id="SvgjsTspan1049" style="text-decoration:;">2. git commit</tspan></tspan></text></g></g><g id="SvgjsG1050" transform="translate(169,503)"><path id="SvgjsPath1051" d="M 0 0L 101 0L 101 70L 0 70Z" stroke="#323232" stroke-width="2" fill-opacity="1" fill="#99ffff"></path><g id="SvgjsG1052"><text id="SvgjsText1053" font-family="微软雅黑" text-anchor="middle" font-size="13px" width="38" fill="#323232" font-weight="400" align="middle" anchor="middle" family="微软雅黑" size="13px" weight="400" font-style="" y="17.05" transform="rotate(0)"><tspan id="SvgjsTspan1054" dy="16" x="50.5"><tspan id="SvgjsTspan1055" style="text-decoration:;font-size: inherit;">58c9bd</tspan></tspan><tspan id="SvgjsTspan1056" dy="16" x="50.5"><tspan id="SvgjsTspan1057" style="text-decoration:;">111</tspan></tspan></text></g></g><g id="SvgjsG1058" transform="translate(434,506)"><path id="SvgjsPath1059" d="M 0 0L 100 0L 100 70L 0 70Z" stroke="#323232" stroke-width="2" fill-opacity="1" fill="#99ffff"></path><g id="SvgjsG1060"><text id="SvgjsText1061" font-family="微软雅黑" text-anchor="middle" font-size="13px" width="38" fill="#323232" font-weight="400" align="middle" anchor="middle" family="微软雅黑" size="13px" weight="400" font-style="" y="17.05" transform="rotate(0)"><tspan id="SvgjsTspan1062" dy="16" x="50"><tspan id="SvgjsTspan1063" style="text-decoration:;">c20090</tspan></tspan><tspan id="SvgjsTspan1064" dy="16" x="50"><tspan id="SvgjsTspan1065" style="text-decoration:;">222</tspan></tspan></text></g></g><g id="SvgjsG1066" transform="translate(294,296)"><path id="SvgjsPath1067" d="M 62.5 0L 125 113L 0 113Z" stroke="#323232" stroke-width="2" fill-opacity="1" fill="#33ffff"></path><g id="SvgjsG1068"><text id="SvgjsText1069" font-family="微软雅黑" text-anchor="middle" font-size="13px" width="37" fill="#323232" font-weight="400" align="middle" anchor="middle" family="微软雅黑" size="13px" weight="400" font-style="" y="60.675" transform="rotate(0)"><tspan id="SvgjsTspan1070" dy="16" x="62.5"><tspan id="SvgjsTspan1071" style="text-decoration:;">d964f4</tspan></tspan></text></g></g><g id="SvgjsG1072" transform="translate(305.5,125)"><path id="SvgjsPath1073" d="M 0 47.5C 0 -15.833333333333334 102 -15.833333333333334 102 47.5C 102 110.83333333333333 0 110.83333333333333 0 47.5Z" stroke="#323232" stroke-width="2" fill-opacity="1" fill="#33ffff"></path><g id="SvgjsG1074"><text id="SvgjsText1075" font-family="微软雅黑" text-anchor="middle" font-size="13px" width="38" fill="#323232" font-weight="400" align="middle" anchor="middle" family="微软雅黑" size="13px" weight="400" font-style="" y="37.55" transform="rotate(0)"><tspan id="SvgjsTspan1076" dy="16" x="51"><tspan id="SvgjsTspan1077" style="text-decoration:;">73622e</tspan></tspan></text></g></g><g id="SvgjsG1078"><path id="SvgjsPath1079" d="M294.8126155740733 408.1547634765186L219.5 408.1547634765186L219.5 503" stroke="#33ffff" stroke-width="2" fill="none" marker-end="url(#SvgjsMarker1080)"></path></g><g id="SvgjsG1082"><path id="SvgjsPath1083" d="M418.09369221296333 407.5773817382593L484 407.5773817382593L484 506" stroke="#33ffff" stroke-width="2" fill="none" marker-end="url(#SvgjsMarker1084)"></path></g><g id="SvgjsG1086"><path id="SvgjsPath1087" d="M356.5 220L356.5 258L356.5 258L356.5 296" stroke="#33ffff" stroke-width="2" fill="none" marker-end="url(#SvgjsMarker1088)"></path></g><g id="SvgjsG1090" transform="translate(154,147.5)"><path id="SvgjsPath1091" d="M 16.666666666666668 0L 83.33333333333333 0C 105.55555555555556 0 105.55555555555556 50 83.33333333333333 50L 16.666666666666668 50C -5.555555555555556 50 -5.555555555555556 0 16.666666666666668 0Z" stroke="#323232" stroke-width="2" fill-opacity="1" fill="#33ffff"></path><g id="SvgjsG1092"><text id="SvgjsText1093" font-family="微软雅黑" text-anchor="middle" font-size="13px" width="35" fill="#323232" font-weight="400" align="middle" anchor="middle" family="微软雅黑" size="13px" weight="400" font-style="" y="15.05" transform="rotate(0)"><tspan id="SvgjsTspan1094" dy="16" x="50"><tspan id="SvgjsTspan1095" style="text-decoration:;">master</tspan></tspan></text></g></g><g id="SvgjsG1096" transform="translate(154,78)"><path id="SvgjsPath1097" d="M 16.666666666666668 0L 83.33333333333333 0C 105.55555555555556 0 105.55555555555556 50 83.33333333333333 50L 16.666666666666668 50C -5.555555555555556 50 -5.555555555555556 0 16.666666666666668 0Z" stroke="#323232" stroke-width="2" fill-opacity="1" fill="#33ffff"></path><g id="SvgjsG1098"><text id="SvgjsText1099" font-family="微软雅黑" text-anchor="middle" font-size="13px" width="36" fill="#323232" font-weight="400" align="middle" anchor="middle" family="微软雅黑" size="13px" weight="400" font-style="" y="15.05" transform="rotate(0)"><tspan id="SvgjsTspan1100" dy="16" x="50"><tspan id="SvgjsTspan1101" style="text-decoration:;">HEAD</tspan></tspan></text></g></g><g id="SvgjsG1102"><path id="SvgjsPath1103" d="M204 128L204 137.75L204 137.75L204 147.5" stroke="#33ffff" stroke-width="2" fill="none" marker-end="url(#SvgjsMarker1104)"></path></g><g id="SvgjsG1106" transform="translate(834,498)"><path id="SvgjsPath1107" d="M 0 0L 100 0L 100 70L 0 70Z" stroke="#6666ff" stroke-width="2" fill-opacity="1" fill="#6666ff"></path><g id="SvgjsG1108"><text id="SvgjsText1109" font-family="微软雅黑" text-anchor="middle" font-size="13px" width="38" fill="#323232" font-weight="400" align="middle" anchor="middle" family="微软雅黑" size="13px" weight="400" font-style="" y="17.05" transform="rotate(0)"><tspan id="SvgjsTspan1110" dy="16" x="50"><tspan id="SvgjsTspan1111" style="text-decoration:;">55bd0a</tspan></tspan><tspan id="SvgjsTspan1112" dy="16" x="50"><tspan id="SvgjsTspan1113" style="text-decoration:;">333</tspan></tspan></text></g></g><g id="SvgjsG1114" transform="translate(642,301)"><path id="SvgjsPath1115" d="M 62.5 0L 125 113L 0 113Z" stroke="#323232" stroke-width="2" fill-opacity="1" fill="#3333ff"></path><g id="SvgjsG1116"><text id="SvgjsText1117" font-family="微软雅黑" text-anchor="middle" font-size="13px" width="38" fill="#323232" font-weight="400" align="middle" anchor="middle" family="微软雅黑" size="13px" weight="400" font-style="" y="60.675" transform="rotate(0)"><tspan id="SvgjsTspan1118" dy="16" x="62.5"><tspan id="SvgjsTspan1119" style="text-decoration:;">6174c3</tspan></tspan></text></g></g><g id="SvgjsG1120"><path id="SvgjsPath1121" d="M763.467911113762 412.7144247806269L884 412.7144247806269L884 498" stroke="#6666ff" stroke-width="2" fill="none" marker-end="url(#SvgjsMarker1122)"></path></g><g id="SvgjsG1124"><path id="SvgjsPath1125" d="M643.924038765061 410.13175911166536L516 410.13175911166536L516 506" stroke="#6666ff" stroke-width="2" fill="none" marker-end="url(#SvgjsMarker1126)"></path></g><g id="SvgjsG1128" transform="translate(653.5,125)"><path id="SvgjsPath1129" d="M 0 47.5C 0 -15.833333333333334 102 -15.833333333333334 102 47.5C 102 110.83333333333333 0 110.83333333333333 0 47.5Z" stroke="#323232" stroke-width="2" fill-opacity="1" fill="#3333ff"></path><g id="SvgjsG1130"><text id="SvgjsText1131" font-family="微软雅黑" text-anchor="middle" font-size="13px" width="38" fill="#323232" font-weight="400" align="middle" anchor="middle" family="微软雅黑" size="13px" weight="400" font-style="" y="37.55" transform="rotate(0)"><tspan id="SvgjsTspan1132" dy="16" x="51"><tspan id="SvgjsTspan1133" style="text-decoration:;">558e28</tspan></tspan></text></g></g><g id="SvgjsG1134"><path id="SvgjsPath1135" d="M254 172.5L279.75 172.5L279.75 172.5L305.5 172.5" stroke="#33ffff" stroke-width="2" fill="none" marker-end="url(#SvgjsMarker1136)"></path></g><g id="SvgjsG1138"><path id="SvgjsPath1139" d="M653.5 172.5L530.5 172.5L530.5 172.5L407.5 172.5" stroke="#3333ff" stroke-width="2" fill="none" marker-end="url(#SvgjsMarker1140)"></path></g><g id="SvgjsG1142"><path id="SvgjsPath1143" d="M704.5 220L704.5 260.5L704.5 260.5L704.5 301" stroke="#3333ff" stroke-width="2" fill="none" marker-end="url(#SvgjsMarker1144)"></path></g><g id="SvgjsG1146" transform="translate(828,82)"><path id="SvgjsPath1147" d="M 16.666666666666668 0L 83.33333333333333 0C 105.55555555555556 0 105.55555555555556 50 83.33333333333333 50L 16.666666666666668 50C -5.555555555555556 50 -5.555555555555556 0 16.666666666666668 0Z" stroke="#323232" stroke-width="2" fill-opacity="1" fill="#ffffff"></path><g id="SvgjsG1148"><text id="SvgjsText1149" font-family="微软雅黑" text-anchor="middle" font-size="13px" width="35" fill="#323232" font-weight="400" align="middle" anchor="middle" family="微软雅黑" size="13px" weight="400" font-style="" y="15.05" transform="rotate(0)"><tspan id="SvgjsTspan1150" dy="16" x="50"><tspan id="SvgjsTspan1151" style="text-decoration:;">master</tspan></tspan></text></g></g><g id="SvgjsG1152" transform="translate(572,82)"><path id="SvgjsPath1153" d="M 16.666666666666668 0L 83.33333333333333 0C 105.55555555555556 0 105.55555555555556 50 83.33333333333333 50L 16.666666666666668 50C -5.555555555555556 50 -5.555555555555556 0 16.666666666666668 0Z" stroke="#323232" stroke-width="2" fill-opacity="1" fill="#ffffff"></path><g id="SvgjsG1154"><text id="SvgjsText1155" font-family="微软雅黑" text-anchor="middle" font-size="13px" width="36" fill="#323232" font-weight="400" align="middle" anchor="middle" family="微软雅黑" size="13px" weight="400" font-style="" y="15.05" transform="rotate(0)"><tspan id="SvgjsTspan1156" dy="16" x="50"><tspan id="SvgjsTspan1157" style="text-decoration:;">HEAD</tspan></tspan></text></g></g><g id="SvgjsG1158" transform="translate(986,213.5)"><path id="SvgjsPath1159" d="M 16.666666666666668 0L 83.33333333333333 0C 105.55555555555556 0 105.55555555555556 50 83.33333333333333 50L 16.666666666666668 50C -5.555555555555556 50 -5.555555555555556 0 16.666666666666668 0Z" stroke="#323232" stroke-width="2" fill-opacity="1" fill="#ff9999"></path><g id="SvgjsG1160"><text id="SvgjsText1161" font-family="微软雅黑" text-anchor="middle" font-size="13px" width="61" fill="#323232" font-weight="400" align="middle" anchor="middle" family="微软雅黑" size="13px" weight="400" font-style="" y="15.05" transform="rotate(0)"><tspan id="SvgjsTspan1162" dy="16" x="50"><tspan id="SvgjsTspan1163" style="text-decoration:;">new-branch</tspan></tspan></text></g></g><g id="SvgjsG1164"><path id="SvgjsPath1165" d="M986 238.5L736.7144247806269 238.5L736.7144247806269 209.46791111376206" stroke="#ff9999" stroke-width="2" fill="none" marker-end="url(#SvgjsMarker1166)"></path></g><g id="SvgjsG1168" transform="translate(1318,498)"><path id="SvgjsPath1169" d="M 0 0L 100 0L 100 70L 0 70Z" stroke="#323232" stroke-width="2" fill-opacity="1" fill="#ff6666"></path><g id="SvgjsG1170"><text id="SvgjsText1171" font-family="微软雅黑" text-anchor="middle" font-size="13px" width="38" fill="#323232" font-weight="400" align="middle" anchor="middle" family="微软雅黑" size="13px" weight="400" font-style="" y="17.05" transform="rotate(0)"><tspan id="SvgjsTspan1172" dy="16" x="50"><tspan id="SvgjsTspan1173" style="text-decoration:;">2e799a</tspan></tspan><tspan id="SvgjsTspan1174" dy="16" x="50"><tspan id="SvgjsTspan1175" style="text-decoration:;">file3</tspan></tspan></text></g></g><g id="SvgjsG1176" transform="translate(150,604)"><path id="SvgjsPath1177" d="M 0 0L 111 0L 127 16L 127 42L 0 42L 0 0Z" stroke="none" fill-opacity="1" fill="#ccffff"></path><path id="SvgjsPath1178" d="M 111 0L 111 16L 127 16Z" stroke="none" fill-opacity="1" fill="#cdcdcd"></path><path id="SvgjsPath1179" d="M 0 0L 111 0L 127 16L 127 42L 0 42L 0 0Z" stroke="none" fill="none"></path><g id="SvgjsG1180"><text id="SvgjsText1181" font-family="微软雅黑" text-anchor="middle" font-size="13px" width="23" fill="#323232" font-weight="400" align="middle" anchor="middle" family="微软雅黑" size="13px" weight="400" font-style="" y="11.05" transform="rotate(0)"><tspan id="SvgjsTspan1182" dy="16" x="63.5"><tspan id="SvgjsTspan1183" style="text-decoration:;">file1</tspan></tspan></text></g></g><g id="SvgjsG1184" transform="translate(419,604)"><path id="SvgjsPath1185" d="M 0 0L 111 0L 127 16L 127 42L 0 42L 0 0Z" stroke="none" fill-opacity="1" fill="#ccffff"></path><path id="SvgjsPath1186" d="M 111 0L 111 16L 127 16Z" stroke="none" fill-opacity="1" fill="#cdcdcd"></path><path id="SvgjsPath1187" d="M 0 0L 111 0L 127 16L 127 42L 0 42L 0 0Z" stroke="none" fill="none"></path><g id="SvgjsG1188"><text id="SvgjsText1189" font-family="微软雅黑" text-anchor="middle" font-size="13px" width="23" fill="#323232" font-weight="400" align="middle" anchor="middle" family="微软雅黑" size="13px" weight="400" font-style="" y="11.05" transform="rotate(0)"><tspan id="SvgjsTspan1190" dy="16" x="63.5"><tspan id="SvgjsTspan1191" style="text-decoration:;">file2</tspan></tspan></text></g></g><g id="SvgjsG1192" transform="translate(820.5,612)"><path id="SvgjsPath1193" d="M 0 0L 111 0L 127 16L 127 42L 0 42L 0 0Z" stroke="none" fill-opacity="1" fill="#9999ff"></path><path id="SvgjsPath1194" d="M 111 0L 111 16L 127 16Z" stroke="none" fill-opacity="1" fill="#cdcdcd"></path><path id="SvgjsPath1195" d="M 0 0L 111 0L 127 16L 127 42L 0 42L 0 0Z" stroke="none" fill="none"></path><g id="SvgjsG1196"><text id="SvgjsText1197" font-family="微软雅黑" text-anchor="middle" font-size="13px" width="23" fill="#323232" font-weight="400" align="middle" anchor="middle" family="微软雅黑" size="13px" weight="400" font-style="" y="11.05" transform="rotate(0)"><tspan id="SvgjsTspan1198" dy="16" x="63.5"><tspan id="SvgjsTspan1199" style="text-decoration:;">file1</tspan></tspan></text></g></g><g id="SvgjsG1200" transform="translate(1314.5,612)"><path id="SvgjsPath1201" d="M 0 0L 111 0L 127 16L 127 42L 0 42L 0 0Z" stroke="none" fill-opacity="1" fill="#ff6666"></path><path id="SvgjsPath1202" d="M 111 0L 111 16L 127 16Z" stroke="none" fill-opacity="1" fill="#cdcdcd"></path><path id="SvgjsPath1203" d="M 0 0L 111 0L 127 16L 127 42L 0 42L 0 0Z" stroke="none" fill="none"></path><g id="SvgjsG1204"><text id="SvgjsText1205" font-family="微软雅黑" text-anchor="middle" font-size="13px" width="23" fill="#323232" font-weight="400" align="middle" anchor="middle" family="微软雅黑" size="13px" weight="400" font-style="" y="11.05" transform="rotate(0)"><tspan id="SvgjsTspan1206" dy="16" x="63.5"><tspan id="SvgjsTspan1207" style="text-decoration:;">file3</tspan></tspan></text></g></g><g id="SvgjsG1208" transform="translate(1124,296)"><path id="SvgjsPath1209" d="M 62.5 0L 125 113L 0 113Z" stroke="#323232" stroke-width="2" fill-opacity="1" fill="#ff3333"></path><g id="SvgjsG1210"><text id="SvgjsText1211" font-family="微软雅黑" text-anchor="middle" font-size="13px" width="39" fill="#323232" font-weight="400" align="middle" anchor="middle" family="微软雅黑" size="13px" weight="400" font-style="" y="60.675" transform="rotate(0)"><tspan id="SvgjsTspan1212" dy="16" x="62.5"><tspan id="SvgjsTspan1213" style="text-decoration:;">b72118</tspan></tspan></text></g></g><g id="SvgjsG1214"><path id="SvgjsPath1215" d="M1124.4641016151377 408.5L1029.2320508075688 408.5L1029.2320508075688 533L934 533" stroke="#ff3333" stroke-width="2" fill="none" marker-end="url(#SvgjsMarker1216)"></path></g><g id="SvgjsG1218"><path id="SvgjsPath1219" d="M1248.2679491924312 408.5L1368 408.5L1368 498" stroke="#ff3333" stroke-width="2" fill="none" marker-end="url(#SvgjsMarker1220)"></path></g><g id="SvgjsG1222"><path id="SvgjsPath1223" d="M1186.5 409L1186.5 606L484 606L484 576" stroke="#ff3333" stroke-width="2" fill="none" marker-end="url(#SvgjsMarker1224)"></path></g><g id="SvgjsG1226" transform="translate(1135.5,147.5)"><path id="SvgjsPath1227" d="M 0 47.5C 0 -15.833333333333334 102 -15.833333333333334 102 47.5C 102 110.83333333333333 0 110.83333333333333 0 47.5Z" stroke="#323232" stroke-width="2" fill-opacity="1" fill="#ff3333"></path><g id="SvgjsG1228"><text id="SvgjsText1229" font-family="微软雅黑" text-anchor="middle" font-size="13px" width="35" fill="#323232" font-weight="400" align="middle" anchor="middle" family="微软雅黑" size="13px" weight="400" font-style="" y="37.55" transform="rotate(0)"><tspan id="SvgjsTspan1230" dy="16" x="51"><tspan id="SvgjsTspan1231" style="text-decoration:;">ce907f</tspan></tspan></text></g></g><g id="SvgjsG1232"><path id="SvgjsPath1233" d="M1135.5 195L942.5779227453718 195L942.5779227453718 195.04167216781514L749.6558454907434 195.04167216781514" stroke="#ff3333" stroke-width="2" fill="none" marker-end="url(#SvgjsMarker1234)"></path></g><g id="SvgjsG1236" transform="translate(986,297)"><path id="SvgjsPath1237" d="M 16.666666666666668 0L 83.33333333333333 0C 105.55555555555556 0 105.55555555555556 50 83.33333333333333 50L 16.666666666666668 50C -5.555555555555556 50 -5.555555555555556 0 16.666666666666668 0Z" stroke="#ff6666" stroke-width="2" fill-opacity="1" fill="#ff9999"></path><g id="SvgjsG1238"><text id="SvgjsText1239" font-family="微软雅黑" text-anchor="middle" font-size="13px" width="36" fill="#323232" font-weight="400" align="middle" anchor="middle" family="微软雅黑" size="13px" weight="400" font-style="" y="15.05" transform="rotate(0)"><tspan id="SvgjsTspan1240" dy="16" x="50"><tspan id="SvgjsTspan1241" style="text-decoration:;">HEAD</tspan></tspan></text></g></g><g id="SvgjsG1242"><path id="SvgjsPath1243" d="M1036 297L1036 280.25L1036 280.25L1036 263.5" stroke="#ff9999" stroke-width="2" fill="none" marker-end="url(#SvgjsMarker1244)"></path></g><g id="SvgjsG1246" transform="translate(1309,170)"><path id="SvgjsPath1247" d="M 16.666666666666668 0L 83.33333333333333 0C 105.55555555555556 0 105.55555555555556 50 83.33333333333333 50L 16.666666666666668 50C -5.555555555555556 50 -5.555555555555556 0 16.666666666666668 0Z" stroke="#323232" stroke-width="2" fill-opacity="1" fill="#ff3333"></path><g id="SvgjsG1248"><text id="SvgjsText1249" font-family="微软雅黑" text-anchor="middle" font-size="13px" width="61" fill="#323232" font-weight="400" align="middle" anchor="middle" family="微软雅黑" size="13px" weight="400" font-style="" y="15.05" transform="rotate(0)"><tspan id="SvgjsTspan1250" dy="16" x="50"><tspan id="SvgjsTspan1251" style="text-decoration:;">new-branch</tspan></tspan></text></g></g><g id="SvgjsG1252" transform="translate(1309,301)"><path id="SvgjsPath1253" d="M 16.666666666666668 0L 83.33333333333333 0C 105.55555555555556 0 105.55555555555556 50 83.33333333333333 50L 16.666666666666668 50C -5.555555555555556 50 -5.555555555555556 0 16.666666666666668 0Z" stroke="#ff6666" stroke-width="2" fill-opacity="1" fill="#ff3333"></path><g id="SvgjsG1254"><text id="SvgjsText1255" font-family="微软雅黑" text-anchor="middle" font-size="13px" width="36" fill="#323232" font-weight="400" align="middle" anchor="middle" family="微软雅黑" size="13px" weight="400" font-style="" y="15.05" transform="rotate(0)"><tspan id="SvgjsTspan1256" dy="16" x="50"><tspan id="SvgjsTspan1257" style="text-decoration:;">HEAD</tspan></tspan></text></g></g><g id="SvgjsG1258"><path id="SvgjsPath1259" d="M1359 301L1359 260.5L1359 260.5L1359 220" stroke="#ff3333" stroke-width="2" fill="none" marker-end="url(#SvgjsMarker1260)"></path></g><g id="SvgjsG1262"><path id="SvgjsPath1263" d="M1309 195L1273.25 195L1273.25 195L1237.5 195" stroke="#ff3333" stroke-width="2" fill="none" marker-end="url(#SvgjsMarker1264)"></path></g><g id="SvgjsG1266" transform="translate(969.75,357)"><path id="SvgjsPath1267" d="M 0 0L 116.5 0L 132.5 16L 132.5 44L 0 44L 0 0Z" stroke="none" fill-opacity="1" fill="#ff9999"></path><path id="SvgjsPath1268" d="M 116.5 0L 116.5 16L 132.5 16Z" stroke="none" fill-opacity="1" fill="#cdcdcd"></path><path id="SvgjsPath1269" d="M 0 0L 116.5 0L 132.5 16L 132.5 44L 0 44L 0 0Z" stroke="none" fill="none"></path><g id="SvgjsG1270"><text id="SvgjsText1271" font-family="微软雅黑" text-anchor="middle" font-size="13px" width="82" fill="#323232" font-weight="400" align="middle" anchor="middle" family="微软雅黑" size="13px" weight="400" font-style="" y="4.05" transform="rotate(0)"><tspan id="SvgjsTspan1272" dy="16" x="66.5"><tspan id="SvgjsTspan1273" style="text-decoration:;">git branch new-</tspan></tspan><tspan id="SvgjsTspan1274" dy="16" x="66.5"><tspan id="SvgjsTspan1275" style="text-decoration:;">branch</tspan></tspan></text></g></g><g id="SvgjsG1276" transform="translate(723,861)"><path id="SvgjsPath1277" d="M 0 37.5C 0 -12.5 81 -12.5 81 37.5C 81 87.5 0 87.5 0 37.5Z" stroke="#323232" stroke-width="2" fill-opacity="1" fill="#ffffff"></path><g id="SvgjsG1278"><text id="SvgjsText1279" font-family="微软雅黑" text-anchor="middle" font-size="13px" width="40" fill="#323232" font-weight="400" align="middle" anchor="middle" family="微软雅黑" size="13px" weight="400" font-style="" y="27.55" transform="rotate(0)"><tspan id="SvgjsTspan1280" dy="16" x="40.5"><tspan id="SvgjsTspan1281" style="text-decoration:;">commit</tspan></tspan></text></g></g><g id="SvgjsG1282" transform="translate(584.5,855.5)"><path id="SvgjsPath1283" d="M 45.75 0L 91.5 72L 0 72Z" stroke="#323232" stroke-width="2" fill-opacity="1" fill="#ffffff"></path><g id="SvgjsG1284"><text id="SvgjsText1285" font-family="微软雅黑" text-anchor="middle" font-size="13px" width="19" fill="#323232" font-weight="400" align="middle" anchor="middle" family="微软雅黑" size="13px" weight="400" font-style="" y="35.05" transform="rotate(0)"><tspan id="SvgjsTspan1286" dy="16" x="46"><tspan id="SvgjsTspan1287" style="text-decoration:;">tree</tspan></tspan></text></g></g><g id="SvgjsG1288"><path id="SvgjsPath1289" d="M1186.5 242.5L1186.5 269.25L1186.5 269.25L1186.5 296" stroke="#ff3333" stroke-width="2" fill="none" marker-end="url(#SvgjsMarker1290)"></path></g><g id="SvgjsG1292"><path id="SvgjsPath1293" d="M878 132L878 172.5L755.5 172.5" stroke-dasharray="8,5" stroke="#000000" stroke-width="2" fill="none" marker-end="url(#SvgjsMarker1294)"></path><rect id="SvgjsRect1296" width="65" height="16" x="804.5" y="164.5" fill="#ffffff"></rect><text id="SvgjsText1297" font-family="微软雅黑" text-anchor="middle" font-size="13px" width="65" fill="#323232" font-weight="400" align="top" anchor="middle" family="微软雅黑" size="13px" weight="400" font-style="" y="162.55" transform="rotate(0)"><tspan id="SvgjsTspan1298" dy="16" x="837"><tspan id="SvgjsTspan1299" style="text-decoration:;">改变了指向</tspan></tspan></text></g><g id="SvgjsG1300"><path id="SvgjsPath1301" d="M672 107L750 107L750 107L828 107" stroke-dasharray="8,5" stroke="#000000" stroke-width="2" fill="none" marker-end="url(#SvgjsMarker1302)"></path><rect id="SvgjsRect1304" width="65" height="16" x="717.5" y="99" fill="#ffffff"></rect><text id="SvgjsText1305" font-family="微软雅黑" text-anchor="middle" font-size="13px" width="65" fill="#323232" font-weight="400" align="top" anchor="middle" family="微软雅黑" size="13px" weight="400" font-style="" y="97.05" transform="rotate(0)"><tspan id="SvgjsTspan1306" dy="16" x="750"><tspan id="SvgjsTspan1307" style="text-decoration:;">改变了指向</tspan></tspan></text></g><g id="SvgjsG1308" transform="translate(439,867.5)"><path id="SvgjsPath1309" d="M 0 0L 87 0L 87 56L 0 56Z" stroke="#323232" stroke-width="2" fill-opacity="1" fill="#ffffff"></path><g id="SvgjsG1310"><text id="SvgjsText1311" font-family="微软雅黑" text-anchor="middle" font-size="13px" width="23" fill="#323232" font-weight="400" align="middle" anchor="middle" family="微软雅黑" size="13px" weight="400" font-style="" y="18.05" transform="rotate(0)"><tspan id="SvgjsTspan1312" dy="16" x="43.5"><tspan id="SvgjsTspan1313" style="text-decoration:;">blob</tspan></tspan></text></g></g><g id="SvgjsG1314" transform="translate(118,746)"><path id="SvgjsPath1315" d="M 0 0L 421 0L 437 16L 437 66L 0 66L 0 0Z" stroke="none" fill-opacity="1" fill="#ffffaa"></path><path id="SvgjsPath1316" d="M 421 0L 421 16L 437 16Z" stroke="none" fill-opacity="1" fill="#cdcdcd"></path><path id="SvgjsPath1317" d="M 0 0L 421 0L 437 16L 437 66L 0 66L 0 0Z" stroke="none" fill="none"></path><g id="SvgjsG1318"><text id="SvgjsText1319" font-family="微软雅黑" text-anchor="middle" font-size="13px" width="296" fill="#323232" font-weight="400" align="middle" anchor="middle" family="微软雅黑" size="13px" weight="400" font-style="" y="23.05" transform="rotate(0)"><tspan id="SvgjsTspan1320" dy="16" x="218.5"><tspan id="SvgjsTspan1321" style="text-decoration:;">两个文件。file1 和 file2 里面内容分别是：111 和 222</tspan></tspan></text></g></g><g id="SvgjsG1322" transform="translate(572,752)"><path id="SvgjsPath1323" d="M 0 0L 359.5 0L 375.5 16L 375.5 64L 0 64L 0 0Z" stroke="none" fill-opacity="1" fill="#ffffaa"></path><path id="SvgjsPath1324" d="M 359.5 0L 359.5 16L 375.5 16Z" stroke="none" fill-opacity="1" fill="#cdcdcd"></path><path id="SvgjsPath1325" d="M 0 0L 359.5 0L 375.5 16L 375.5 64L 0 64L 0 0Z" stroke="none" fill="none"></path><g id="SvgjsG1326"><text id="SvgjsText1327" font-family="微软雅黑" text-anchor="middle" font-size="13px" width="192" fill="#323232" font-weight="400" align="middle" anchor="middle" family="微软雅黑" size="13px" weight="400" font-style="" y="22.05" transform="rotate(0)"><tspan id="SvgjsTspan1328" dy="16" x="188"><tspan id="SvgjsTspan1329" style="text-decoration:;">两个文件。file1 的内容改为： 333</tspan></tspan></text></g></g><g id="SvgjsG1330" transform="translate(974,752)"><path id="SvgjsPath1331" d="M 0 0L 474 0L 490 16L 490 64L 0 64L 0 0Z" stroke="none" fill-opacity="1" fill="#ffffaa"></path><path id="SvgjsPath1332" d="M 474 0L 474 16L 490 16Z" stroke="none" fill-opacity="1" fill="#cdcdcd"></path><path id="SvgjsPath1333" d="M 0 0L 474 0L 490 16L 490 64L 0 64L 0 0Z" stroke="none" fill="none"></path><g id="SvgjsG1334"><text id="SvgjsText1335" font-family="微软雅黑" text-anchor="middle" font-size="13px" width="291" fill="#323232" font-weight="400" align="middle" anchor="middle" family="微软雅黑" size="13px" weight="400" font-style="" y="-9.95" transform="rotate(0)"><tspan id="SvgjsTspan1336" dy="16" x="245"><tspan id="SvgjsTspan1337" style="text-decoration:;"> </tspan></tspan><tspan id="SvgjsTspan1338" dy="16" x="245"><tspan id="SvgjsTspan1339" style="text-decoration:;">1. git branch new-branch 新建一个分支</tspan></tspan><tspan id="SvgjsTspan1340" dy="16" x="245"><tspan id="SvgjsTspan1341" style="text-decoration:;font-size: inherit;">2. git checkout new-branch 切换分支  </tspan></tspan><tspan id="SvgjsTspan1342" dy="16" x="245"><tspan id="SvgjsTspan1343" style="text-decoration:;">3.新加一个文件 file3，里面内容是 new-branch-file3  </tspan></tspan><tspan id="SvgjsTspan1344" dy="16" x="245"><tspan id="SvgjsTspan1345" style="text-decoration:;"> </tspan></tspan></text></g></g><g id="SvgjsG1346" transform="translate(118,861.75)"><path id="SvgjsPath1347" d="M 0 0L 231 0L 247 16L 247 73.5L 0 73.5L 0 0Z" stroke="none" fill-opacity="1" fill="#ffffaa"></path><path id="SvgjsPath1348" d="M 231 0L 231 16L 247 16Z" stroke="none" fill-opacity="1" fill="#cdcdcd"></path><path id="SvgjsPath1349" d="M 0 0L 231 0L 247 16L 247 73.5L 0 73.5L 0 0Z" stroke="none" fill="none"></path><g id="SvgjsG1350"><text id="SvgjsText1351" font-family="微软雅黑" text-anchor="middle" font-size="13px" width="136" fill="#323232" font-weight="400" align="middle" anchor="middle" family="微软雅黑" size="13px" weight="400" font-style="" y="26.8" transform="rotate(0)"><tspan id="SvgjsTspan1352" dy="16" x="123.5"><tspan id="SvgjsTspan1353" style="text-decoration:;">.git/objects 下的 obj 类型</tspan></tspan></text></g></g><g id="SvgjsG1354" transform="translate(1497,85)"><path id="SvgjsPath1355" d="M 16.666666666666668 0L 83.33333333333333 0C 105.55555555555556 0 105.55555555555556 50 83.33333333333333 50L 16.666666666666668 50C -5.555555555555556 50 -5.555555555555556 0 16.666666666666668 0Z" stroke="#323232" stroke-width="2" fill-opacity="1" fill="#ff00ff"></path><g id="SvgjsG1356"><text id="SvgjsText1357" font-family="微软雅黑" text-anchor="middle" font-size="13px" width="35" fill="#323232" font-weight="400" align="middle" anchor="middle" family="微软雅黑" size="13px" weight="400" font-style="" y="15.05" transform="rotate(0)"><tspan id="SvgjsTspan1358" dy="16" x="50"><tspan id="SvgjsTspan1359" style="text-decoration:;">master</tspan></tspan></text></g></g><g id="SvgjsG1360" transform="translate(1497,183)"><path id="SvgjsPath1361" d="M 16.666666666666668 0L 83.33333333333333 0C 105.55555555555556 0 105.55555555555556 50 83.33333333333333 50L 16.666666666666668 50C -5.555555555555556 50 -5.555555555555556 0 16.666666666666668 0Z" stroke="#323232" stroke-width="2" fill-opacity="1" fill="#ff00ff"></path><g id="SvgjsG1362"><text id="SvgjsText1363" font-family="微软雅黑" text-anchor="middle" font-size="13px" width="36" fill="#323232" font-weight="400" align="middle" anchor="middle" family="微软雅黑" size="13px" weight="400" font-style="" y="15.05" transform="rotate(0)"><tspan id="SvgjsTspan1364" dy="16" x="50"><tspan id="SvgjsTspan1365" style="text-decoration:;">HEAD</tspan></tspan></text></g></g><g id="SvgjsG1366"><path id="SvgjsPath1367" d="M1497 110L1186.5 110L1186.5 147.5" stroke="#ff00ff" stroke-width="2" fill="none" marker-end="url(#SvgjsMarker1368)"></path><rect id="SvgjsRect1370" width="64" height="16" x="1291" y="102" fill="#ffffff"></rect><text id="SvgjsText1371" font-family="微软雅黑" text-anchor="middle" font-size="13px" width="64" fill="#323232" font-weight="400" align="top" anchor="middle" family="微软雅黑" size="13px" weight="400" font-style="" y="100.05" transform="rotate(0)"><tspan id="SvgjsTspan1372" dy="16" x="1323"><tspan id="SvgjsTspan1373" style="text-decoration:;">fast-forward</tspan></tspan></text></g><g id="SvgjsG1374" transform="translate(1480,755)"><path id="SvgjsPath1375" d="M 0 0L 240 0L 256 16L 256 48L 0 48L 0 0Z" stroke="none" fill-opacity="1" fill="#ffffaa"></path><path id="SvgjsPath1376" d="M 240 0L 240 16L 256 16Z" stroke="none" fill-opacity="1" fill="#cdcdcd"></path><path id="SvgjsPath1377" d="M 0 0L 240 0L 256 16L 256 48L 0 48L 0 0Z" stroke="none" fill="none"></path><g id="SvgjsG1378"><text id="SvgjsText1379" font-family="微软雅黑" text-anchor="middle" font-size="13px" width="127" fill="#323232" font-weight="400" align="middle" anchor="middle" family="微软雅黑" size="13px" weight="400" font-style="" y="-9.95" transform="rotate(0)"><tspan id="SvgjsTspan1380" dy="16" x="128"><tspan id="SvgjsTspan1381" style="text-decoration:;"> </tspan></tspan><tspan id="SvgjsTspan1382" dy="16" x="128"><tspan id="SvgjsTspan1383" style="text-decoration:;">1. git checkout master</tspan></tspan><tspan id="SvgjsTspan1384" dy="16" x="128"><tspan id="SvgjsTspan1385" style="text-decoration:;font-size: inherit;">2. git merge new-branch</tspan></tspan><tspan id="SvgjsTspan1386" dy="16" x="128"><tspan id="SvgjsTspan1387" style="text-decoration:;"> </tspan></tspan></text></g></g><g id="SvgjsG1388"><path id="SvgjsPath1389" d="M1547 183L1547 159L1547 159L1547 135" stroke="#323232" stroke-width="2" fill="none" marker-end="url(#SvgjsMarker1390)"></path></g></svg>