<svg id="SvgjsSvg1006" width="1611" height="961" xmlns="http://www.w3.org/2000/svg" version="1.1" xmlns:xlink="http://www.w3.org/1999/xlink" xmlns:svgjs="http://svgjs.com/svgjs"><defs id="SvgjsDefs1007"><marker id="SvgjsMarker1073" markerWidth="16" markerHeight="12" refX="16" refY="6" viewBox="0 0 16 12" orient="auto" markerUnits="userSpaceOnUse"><path id="SvgjsPath1074" d="M0,2 L14,6 L0,11 L0,2" fill="#33ffff" stroke="#33ffff" stroke-width="2"></path></marker><marker id="SvgjsMarker1077" markerWidth="16" markerHeight="12" refX="16" refY="6" viewBox="0 0 16 12" orient="auto" markerUnits="userSpaceOnUse"><path id="SvgjsPath1078" d="M0,2 L14,6 L0,11 L0,2" fill="#33ffff" stroke="#33ffff" stroke-width="2"></path></marker><marker id="SvgjsMarker1081" markerWidth="16" markerHeight="12" refX="16" refY="6" viewBox="0 0 16 12" orient="auto" markerUnits="userSpaceOnUse"><path id="SvgjsPath1082" d="M0,2 L14,6 L0,11 L0,2" fill="#33ffff" stroke="#33ffff" stroke-width="2"></path></marker><marker id="SvgjsMarker1097" markerWidth="16" markerHeight="12" refX="16" refY="6" viewBox="0 0 16 12" orient="auto" markerUnits="userSpaceOnUse"><path id="SvgjsPath1098" d="M0,2 L14,6 L0,11 L0,2" fill="#33ffff" stroke="#33ffff" stroke-width="2"></path></marker><marker id="SvgjsMarker1115" markerWidth="16" markerHeight="12" refX="16" refY="6" viewBox="0 0 16 12" orient="auto" markerUnits="userSpaceOnUse"><path id="SvgjsPath1116" d="M0,2 L14,6 L0,11 L0,2" fill="#6666ff" stroke="#6666ff" stroke-width="2"></path></marker><marker id="SvgjsMarker1119" markerWidth="16" markerHeight="12" refX="16" refY="6" viewBox="0 0 16 12" orient="auto" markerUnits="userSpaceOnUse"><path id="SvgjsPath1120" d="M0,2 L14,6 L0,11 L0,2" fill="#6666ff" stroke="#6666ff" stroke-width="2"></path></marker><marker id="SvgjsMarker1129" markerWidth="16" markerHeight="12" refX="16" refY="6" viewBox="0 0 16 12" orient="auto" markerUnits="userSpaceOnUse"><path id="SvgjsPath1130" d="M0,2 L14,6 L0,11 L0,2" fill="#33ffff" stroke="#33ffff" stroke-width="2"></path></marker><marker id="SvgjsMarker1133" markerWidth="16" markerHeight="12" refX="16" refY="6" viewBox="0 0 16 12" orient="auto" markerUnits="userSpaceOnUse"><path id="SvgjsPath1134" d="M0,2 L14,6 L0,11 L0,2" fill="#3333ff" stroke="#3333ff" stroke-width="2"></path></marker><marker id="SvgjsMarker1137" markerWidth="16" markerHeight="12" refX="16" refY="6" viewBox="0 0 16 12" orient="auto" markerUnits="userSpaceOnUse"><path id="SvgjsPath1138" d="M0,2 L14,6 L0,11 L0,2" fill="#3333ff" stroke="#3333ff" stroke-width="2"></path></marker><marker id="SvgjsMarker1161" markerWidth="16" markerHeight="12" refX="16" refY="6" viewBox="0 0 16 12" orient="auto" markerUnits="userSpaceOnUse"><path id="SvgjsPath1162" d="M0,2 L14,6 L0,11 L0,2" fill="#ff9999" stroke="#ff9999" stroke-width="2"></path></marker><marker id="SvgjsMarker1211" markerWidth="16" markerHeight="12" refX="16" refY="6" viewBox="0 0 16 12" orient="auto" markerUnits="userSpaceOnUse"><path id="SvgjsPath1212" d="M0,2 L14,6 L0,11 L0,2" fill="#ff3333" stroke="#ff3333" stroke-width="2"></path></marker><marker id="SvgjsMarker1215" markerWidth="16" markerHeight="12" refX="16" refY="6" viewBox="0 0 16 12" orient="auto" markerUnits="userSpaceOnUse"><path id="SvgjsPath1216" d="M0,2 L14,6 L0,11 L0,2" fill="#ff3333" stroke="#ff3333" stroke-width="2"></path></marker><marker id="SvgjsMarker1219" markerWidth="16" markerHeight="12" refX="16" refY="6" viewBox="0 0 16 12" orient="auto" markerUnits="userSpaceOnUse"><path id="SvgjsPath1220" d="M0,2 L14,6 L0,11 L0,2" fill="#ff3333" stroke="#ff3333" stroke-width="2"></path></marker><marker id="SvgjsMarker1229" markerWidth="16" markerHeight="12" refX="16" refY="6" viewBox="0 0 16 12" orient="auto" markerUnits="userSpaceOnUse"><path id="SvgjsPath1230" d="M0,2 L14,6 L0,11 L0,2" fill="#ff3333" stroke="#ff3333" stroke-width="2"></path></marker><marker id="SvgjsMarker1239" markerWidth="16" markerHeight="12" refX="16" refY="6" viewBox="0 0 16 12" orient="auto" markerUnits="userSpaceOnUse"><path id="SvgjsPath1240" d="M0,2 L14,6 L0,11 L0,2" fill="#ff9999" stroke="#ff9999" stroke-width="2"></path></marker><marker id="SvgjsMarker1257" markerWidth="16" markerHeight="12" refX="16" refY="6" viewBox="0 0 16 12" orient="auto" markerUnits="userSpaceOnUse"><path id="SvgjsPath1258" d="M0,2 L14,6 L0,11 L0,2" fill="#ff3333" stroke="#ff3333" stroke-width="2"></path></marker><marker id="SvgjsMarker1261" markerWidth="16" markerHeight="12" refX="16" refY="6" viewBox="0 0 16 12" orient="auto" markerUnits="userSpaceOnUse"><path id="SvgjsPath1262" d="M0,2 L14,6 L0,11 L0,2" fill="#ff3333" stroke="#ff3333" stroke-width="2"></path></marker><marker id="SvgjsMarker1287" markerWidth="16" markerHeight="12" refX="16" refY="6" viewBox="0 0 16 12" orient="auto" markerUnits="userSpaceOnUse"><path id="SvgjsPath1288" d="M0,2 L14,6 L0,11 L0,2" fill="#ff3333" stroke="#ff3333" stroke-width="2"></path></marker><marker id="SvgjsMarker1291" markerWidth="16" markerHeight="12" refX="16" refY="6" viewBox="0 0 16 12" orient="auto" markerUnits="userSpaceOnUse"><path id="SvgjsPath1292" d="M0,2 L14,6 L0,11 L0,2" fill="#3333ff" stroke="#3333ff" stroke-width="2"></path></marker><marker id="SvgjsMarker1295" markerWidth="16" markerHeight="12" refX="16" refY="6" viewBox="0 0 16 12" orient="auto" markerUnits="userSpaceOnUse"><path id="SvgjsPath1296" d="M0,2 L14,6 L0,11 L0,2" fill="#3333ff" stroke="#3333ff" stroke-width="2"></path></marker></defs><g id="SvgjsG1008" transform="translate(967,25)"><path id="SvgjsPath1009" d="M 0 0L 504 0L 504 707L 0 707Z" stroke="#ff3333" stroke-width="2" fill="none"></path><path id="SvgjsPath1010" d="M 0 0L 504 0L 504 40L 0 40Z" stroke="#ff3333" stroke-width="2" fill-opacity="1" fill="#ffffff"></path><g id="SvgjsG1011"><text id="SvgjsText1012" font-family="微软雅黑" text-anchor="middle" font-size="16px" width="272" fill="#323232" font-weight="400" align="middle" anchor="middle" family="微软雅黑" size="16px" weight="400" font-style="" y="7.6" transform="rotate(0)"><tspan id="SvgjsTspan1013" dy="20" x="252"><tspan id="SvgjsTspan1014" style="text-decoration:;">3. git branch / git add / git commit </tspan></tspan></text></g></g><g id="SvgjsG1015" transform="translate(25,484)"><path id="SvgjsPath1016" d="M 0 0L 1561.25 0L 1561.25 98L 0 98Z" stroke="#007fff" stroke-width="2" fill="none"></path><path id="SvgjsPath1017" d="M 0 0L 40 0L 40 98L 0 98Z" stroke="#007fff" stroke-width="2" fill-opacity="1" fill="#ffff00"></path><g id="SvgjsG1018"><text id="SvgjsText1019" font-family="微软雅黑" text-anchor="middle" font-size="16px" width="72" fill="#323232" font-weight="400" align="middle" anchor="middle" family="微软雅黑" size="16px" weight="400" font-style="" y="7.6" transform="rotate(270)"><tspan id="SvgjsTspan1020" dy="20" x="-49"><tspan id="SvgjsTspan1021" style="text-decoration:;">1. git add</tspan></tspan></text></g></g><g id="SvgjsG1022" transform="translate(569,28)"><path id="SvgjsPath1023" d="M 0 0L 389 0L 389 707L 0 707Z" stroke="#3333ff" stroke-width="2" fill="none"></path><path id="SvgjsPath1024" d="M 0 0L 389 0L 389 40L 0 40Z" stroke="#3333ff" stroke-width="2" fill-opacity="1" fill="#ffffff"></path><g id="SvgjsG1025"><text id="SvgjsText1026" font-family="微软雅黑" text-anchor="middle" font-size="16px" width="172" fill="#323232" font-weight="400" align="middle" anchor="middle" family="微软雅黑" size="16px" weight="400" font-style="" y="7.6" transform="rotate(0)"><tspan id="SvgjsTspan1027" dy="20" x="194.5"><tspan id="SvgjsTspan1028" style="text-decoration:;">2. git add / git commit</tspan></tspan></text></g></g><g id="SvgjsG1029" transform="translate(118,26)"><path id="SvgjsPath1030" d="M 0 0L 437 0L 437 711L 0 711Z" stroke="#33ffff" stroke-width="2" fill="none"></path><path id="SvgjsPath1031" d="M 0 0L 437 0L 437 40L 0 40Z" stroke="#33ffff" stroke-width="2" fill-opacity="1" fill="#ffffff"></path><g id="SvgjsG1032"><text id="SvgjsText1033" font-family="微软雅黑" text-anchor="middle" font-size="16px" width="172" fill="#323232" font-weight="400" align="middle" anchor="middle" family="微软雅黑" size="16px" weight="400" font-style="" y="7.6" transform="rotate(0)"><tspan id="SvgjsTspan1034" dy="20" x="218.5"><tspan id="SvgjsTspan1035" style="text-decoration:;">1. git add / git commit</tspan></tspan></text></g></g><g id="SvgjsG1036" transform="translate(25,74)"><path id="SvgjsPath1037" d="M 0 0L 1561.25 0L 1561.25 381.5L 0 381.5Z" stroke="#323232" stroke-width="2" fill="none"></path><path id="SvgjsPath1038" d="M 0 0L 40 0L 40 381.5L 0 381.5Z" stroke="#323232" stroke-width="2" fill-opacity="1" fill="#ff3333"></path><g id="SvgjsG1039"><text id="SvgjsText1040" font-family="微软雅黑" text-anchor="middle" font-size="16px" width="102" fill="#323232" font-weight="400" align="middle" anchor="middle" family="微软雅黑" size="16px" weight="400" font-style="" y="7.6" transform="rotate(270)"><tspan id="SvgjsTspan1041" dy="20" x="-190.5"><tspan id="SvgjsTspan1042" style="text-decoration:;">2. git commit</tspan></tspan></text></g></g><g id="SvgjsG1043" transform="translate(169,503)"><path id="SvgjsPath1044" d="M 0 0L 101 0L 101 70L 0 70Z" stroke="#323232" stroke-width="2" fill-opacity="1" fill="#99ffff"></path><g id="SvgjsG1045"><text id="SvgjsText1046" font-family="微软雅黑" text-anchor="middle" font-size="13px" width="57" fill="#323232" font-weight="400" align="middle" anchor="middle" family="微软雅黑" size="13px" weight="400" font-style="" y="17.05" transform="rotate(0)"><tspan id="SvgjsTspan1047" dy="16" x="50.5"><tspan id="SvgjsTspan1048" style="text-decoration:;font-size: inherit;">58c9bd</tspan></tspan><tspan id="SvgjsTspan1049" dy="16" x="50.5"><tspan id="SvgjsTspan1050" style="text-decoration:;">111</tspan></tspan></text></g></g><g id="SvgjsG1051" transform="translate(432.5,506)"><path id="SvgjsPath1052" d="M 0 0L 100 0L 100 70L 0 70Z" stroke="#323232" stroke-width="2" fill-opacity="1" fill="#99ffff"></path><g id="SvgjsG1053"><text id="SvgjsText1054" font-family="微软雅黑" text-anchor="middle" font-size="13px" width="55" fill="#323232" font-weight="400" align="middle" anchor="middle" family="微软雅黑" size="13px" weight="400" font-style="" y="17.05" transform="rotate(0)"><tspan id="SvgjsTspan1055" dy="16" x="50"><tspan id="SvgjsTspan1056" style="text-decoration:;">c20090</tspan></tspan><tspan id="SvgjsTspan1057" dy="16" x="50"><tspan id="SvgjsTspan1058" style="text-decoration:;">222</tspan></tspan></text></g></g><g id="SvgjsG1059" transform="translate(294,296)"><path id="SvgjsPath1060" d="M 62.5 0L 125 113L 0 113Z" stroke="#323232" stroke-width="2" fill-opacity="1" fill="#33ffff"></path><g id="SvgjsG1061"><text id="SvgjsText1062" font-family="微软雅黑" text-anchor="middle" font-size="13px" width="53" fill="#323232" font-weight="400" align="middle" anchor="middle" family="微软雅黑" size="13px" weight="400" font-style="" y="60.675" transform="rotate(0)"><tspan id="SvgjsTspan1063" dy="16" x="62.5"><tspan id="SvgjsTspan1064" style="text-decoration:;">d964f4</tspan></tspan></text></g></g><g id="SvgjsG1065" transform="translate(305.5,125)"><path id="SvgjsPath1066" d="M 0 47.5C 0 -15.833333333333334 102 -15.833333333333334 102 47.5C 102 110.83333333333333 0 110.83333333333333 0 47.5Z" stroke="#323232" stroke-width="2" fill-opacity="1" fill="#33ffff"></path><g id="SvgjsG1067"><text id="SvgjsText1068" font-family="微软雅黑" text-anchor="middle" font-size="13px" width="56" fill="#323232" font-weight="400" align="middle" anchor="middle" family="微软雅黑" size="13px" weight="400" font-style="" y="37.55" transform="rotate(0)"><tspan id="SvgjsTspan1069" dy="16" x="51"><tspan id="SvgjsTspan1070" style="text-decoration:;">73622e</tspan></tspan></text></g></g><g id="SvgjsG1071"><path id="SvgjsPath1072" d="M294.8126155740733 408.1547634765186L219.5 408.1547634765186L219.5 503" stroke="#33ffff" stroke-width="2" fill="none" marker-end="url(#SvgjsMarker1073)"></path></g><g id="SvgjsG1075"><path id="SvgjsPath1076" d="M418.09369221296333 407.5773817382593L482.5 407.5773817382593L482.5 506" stroke="#33ffff" stroke-width="2" fill="none" marker-end="url(#SvgjsMarker1077)"></path></g><g id="SvgjsG1079"><path id="SvgjsPath1080" d="M356.5 220L356.5 258L356.5 258L356.5 296" stroke="#33ffff" stroke-width="2" fill="none" marker-end="url(#SvgjsMarker1081)"></path></g><g id="SvgjsG1083" transform="translate(154,147.5)"><path id="SvgjsPath1084" d="M 16.666666666666668 0L 83.33333333333333 0C 105.55555555555556 0 105.55555555555556 50 83.33333333333333 50L 16.666666666666668 50C -5.555555555555556 50 -5.555555555555556 0 16.666666666666668 0Z" stroke="#323232" stroke-width="2" fill-opacity="1" fill="#33ffff"></path><g id="SvgjsG1085"><text id="SvgjsText1086" font-family="微软雅黑" text-anchor="middle" font-size="13px" width="52" fill="#323232" font-weight="400" align="middle" anchor="middle" family="微软雅黑" size="13px" weight="400" font-style="" y="15.05" transform="rotate(0)"><tspan id="SvgjsTspan1087" dy="16" x="50"><tspan id="SvgjsTspan1088" style="text-decoration:;">master</tspan></tspan></text></g></g><g id="SvgjsG1089" transform="translate(154,78)"><path id="SvgjsPath1090" d="M 16.666666666666668 0L 83.33333333333333 0C 105.55555555555556 0 105.55555555555556 50 83.33333333333333 50L 16.666666666666668 50C -5.555555555555556 50 -5.555555555555556 0 16.666666666666668 0Z" stroke="#323232" stroke-width="2" fill-opacity="1" fill="#33ffff"></path><g id="SvgjsG1091"><text id="SvgjsText1092" font-family="微软雅黑" text-anchor="middle" font-size="13px" width="45" fill="#323232" font-weight="400" align="middle" anchor="middle" family="微软雅黑" size="13px" weight="400" font-style="" y="15.05" transform="rotate(0)"><tspan id="SvgjsTspan1093" dy="16" x="50"><tspan id="SvgjsTspan1094" style="text-decoration:;">HEAD</tspan></tspan></text></g></g><g id="SvgjsG1095"><path id="SvgjsPath1096" d="M204 128L204 137.75L204 137.75L204 147.5" stroke="#33ffff" stroke-width="2" fill="none" marker-end="url(#SvgjsMarker1097)"></path></g><g id="SvgjsG1099" transform="translate(834,498)"><path id="SvgjsPath1100" d="M 0 0L 100 0L 100 70L 0 70Z" stroke="#6666ff" stroke-width="2" fill-opacity="1" fill="#6666ff"></path><g id="SvgjsG1101"><text id="SvgjsText1102" font-family="微软雅黑" text-anchor="middle" font-size="13px" width="57" fill="#323232" font-weight="400" align="middle" anchor="middle" family="微软雅黑" size="13px" weight="400" font-style="" y="17.05" transform="rotate(0)"><tspan id="SvgjsTspan1103" dy="16" x="50"><tspan id="SvgjsTspan1104" style="text-decoration:;">55bd0a</tspan></tspan><tspan id="SvgjsTspan1105" dy="16" x="50"><tspan id="SvgjsTspan1106" style="text-decoration:;">333</tspan></tspan></text></g></g><g id="SvgjsG1107" transform="translate(642,301)"><path id="SvgjsPath1108" d="M 62.5 0L 125 113L 0 113Z" stroke="#323232" stroke-width="2" fill-opacity="1" fill="#3333ff"></path><g id="SvgjsG1109"><text id="SvgjsText1110" font-family="微软雅黑" text-anchor="middle" font-size="13px" width="55" fill="#323232" font-weight="400" align="middle" anchor="middle" family="微软雅黑" size="13px" weight="400" font-style="" y="60.675" transform="rotate(0)"><tspan id="SvgjsTspan1111" dy="16" x="62.5"><tspan id="SvgjsTspan1112" style="text-decoration:;">6174c3</tspan></tspan></text></g></g><g id="SvgjsG1113"><path id="SvgjsPath1114" d="M763.467911113762 412.7144247806269L884 412.7144247806269L884 498" stroke="#6666ff" stroke-width="2" fill="none" marker-end="url(#SvgjsMarker1115)"></path></g><g id="SvgjsG1117"><path id="SvgjsPath1118" d="M643.924038765061 410.13175911166536L514.5 410.13175911166536L514.5 506" stroke="#6666ff" stroke-width="2" fill="none" marker-end="url(#SvgjsMarker1119)"></path></g><g id="SvgjsG1121" transform="translate(653.5,125)"><path id="SvgjsPath1122" d="M 0 47.5C 0 -15.833333333333334 102 -15.833333333333334 102 47.5C 102 110.83333333333333 0 110.83333333333333 0 47.5Z" stroke="#323232" stroke-width="2" fill-opacity="1" fill="#3333ff"></path><g id="SvgjsG1123"><text id="SvgjsText1124" font-family="微软雅黑" text-anchor="middle" font-size="13px" width="56" fill="#323232" font-weight="400" align="middle" anchor="middle" family="微软雅黑" size="13px" weight="400" font-style="" y="37.55" transform="rotate(0)"><tspan id="SvgjsTspan1125" dy="16" x="51"><tspan id="SvgjsTspan1126" style="text-decoration:;">558e28</tspan></tspan></text></g></g><g id="SvgjsG1127"><path id="SvgjsPath1128" d="M254 172.5L279.75 172.5L279.75 172.5L305.5 172.5" stroke="#33ffff" stroke-width="2" fill="none" marker-end="url(#SvgjsMarker1129)"></path></g><g id="SvgjsG1131"><path id="SvgjsPath1132" d="M653.5 172.5L530.5 172.5L530.5 172.5L407.5 172.5" stroke="#3333ff" stroke-width="2" fill="none" marker-end="url(#SvgjsMarker1133)"></path></g><g id="SvgjsG1135"><path id="SvgjsPath1136" d="M704.5 220L704.5 260.5L704.5 260.5L704.5 301" stroke="#3333ff" stroke-width="2" fill="none" marker-end="url(#SvgjsMarker1137)"></path></g><g id="SvgjsG1139" transform="translate(828,82)"><path id="SvgjsPath1140" d="M 16.666666666666668 0L 83.33333333333333 0C 105.55555555555556 0 105.55555555555556 50 83.33333333333333 50L 16.666666666666668 50C -5.555555555555556 50 -5.555555555555556 0 16.666666666666668 0Z" stroke="#323232" stroke-width="2" fill-opacity="1" fill="#3333ff"></path><g id="SvgjsG1141"><text id="SvgjsText1142" font-family="微软雅黑" text-anchor="middle" font-size="13px" width="52" fill="#323232" font-weight="400" align="middle" anchor="middle" family="微软雅黑" size="13px" weight="400" font-style="" y="15.05" transform="rotate(0)"><tspan id="SvgjsTspan1143" dy="16" x="50"><tspan id="SvgjsTspan1144" style="text-decoration:;">master</tspan></tspan></text></g></g><g id="SvgjsG1145" transform="translate(572,82)"><path id="SvgjsPath1146" d="M 16.666666666666668 0L 83.33333333333333 0C 105.55555555555556 0 105.55555555555556 50 83.33333333333333 50L 16.666666666666668 50C -5.555555555555556 50 -5.555555555555556 0 16.666666666666668 0Z" stroke="#323232" stroke-width="2" fill-opacity="1" fill="#3333ff"></path><g id="SvgjsG1147"><text id="SvgjsText1148" font-family="微软雅黑" text-anchor="middle" font-size="13px" width="45" fill="#323232" font-weight="400" align="middle" anchor="middle" family="微软雅黑" size="13px" weight="400" font-style="" y="15.05" transform="rotate(0)"><tspan id="SvgjsTspan1149" dy="16" x="50"><tspan id="SvgjsTspan1150" style="text-decoration:;">HEAD</tspan></tspan></text></g></g><g id="SvgjsG1151" transform="translate(986,213.5)"><path id="SvgjsPath1152" d="M 16.666666666666668 0L 83.33333333333333 0C 105.55555555555556 0 105.55555555555556 50 83.33333333333333 50L 16.666666666666668 50C -5.555555555555556 50 -5.555555555555556 0 16.666666666666668 0Z" stroke="#323232" stroke-width="2" fill-opacity="1" fill="#ff9999"></path><g id="SvgjsG1153"><text id="SvgjsText1154" font-family="微软雅黑" text-anchor="middle" font-size="13px" width="53" fill="#323232" font-weight="400" align="middle" anchor="middle" family="微软雅黑" size="13px" weight="400" font-style="" y="7.05" transform="rotate(0)"><tspan id="SvgjsTspan1155" dy="16" x="50"><tspan id="SvgjsTspan1156" style="text-decoration:;">new-</tspan></tspan><tspan id="SvgjsTspan1157" dy="16" x="50"><tspan id="SvgjsTspan1158" style="text-decoration:;">branch</tspan></tspan></text></g></g><g id="SvgjsG1159"><path id="SvgjsPath1160" d="M986 238.5L736.7144247806269 238.5L736.7144247806269 209.46791111376206" stroke="#ff9999" stroke-width="2" fill="none" marker-end="url(#SvgjsMarker1161)"></path></g><g id="SvgjsG1163" transform="translate(1318,498)"><path id="SvgjsPath1164" d="M 0 0L 100 0L 100 70L 0 70Z" stroke="#323232" stroke-width="2" fill-opacity="1" fill="#ff6666"></path><g id="SvgjsG1165"><text id="SvgjsText1166" font-family="微软雅黑" text-anchor="middle" font-size="13px" width="55" fill="#323232" font-weight="400" align="middle" anchor="middle" family="微软雅黑" size="13px" weight="400" font-style="" y="17.05" transform="rotate(0)"><tspan id="SvgjsTspan1167" dy="16" x="50"><tspan id="SvgjsTspan1168" style="text-decoration:;">2e799a</tspan></tspan><tspan id="SvgjsTspan1169" dy="16" x="50"><tspan id="SvgjsTspan1170" style="text-decoration:;">file3</tspan></tspan></text></g></g><g id="SvgjsG1171" transform="translate(150,604)"><path id="SvgjsPath1172" d="M 0 0L 111 0L 127 16L 127 42L 0 42L 0 0Z" stroke="none" fill-opacity="1" fill="#ccffff"></path><path id="SvgjsPath1173" d="M 111 0L 111 16L 127 16Z" stroke="none" fill-opacity="1" fill="#cdcdcd"></path><path id="SvgjsPath1174" d="M 0 0L 111 0L 127 16L 127 42L 0 42L 0 0Z" stroke="none" fill="none"></path><g id="SvgjsG1175"><text id="SvgjsText1176" font-family="微软雅黑" text-anchor="middle" font-size="13px" width="33" fill="#323232" font-weight="400" align="middle" anchor="middle" family="微软雅黑" size="13px" weight="400" font-style="" y="11.05" transform="rotate(0)"><tspan id="SvgjsTspan1177" dy="16" x="63.5"><tspan id="SvgjsTspan1178" style="text-decoration:;">file1</tspan></tspan></text></g></g><g id="SvgjsG1179" transform="translate(419,604)"><path id="SvgjsPath1180" d="M 0 0L 111 0L 127 16L 127 42L 0 42L 0 0Z" stroke="none" fill-opacity="1" fill="#ccffff"></path><path id="SvgjsPath1181" d="M 111 0L 111 16L 127 16Z" stroke="none" fill-opacity="1" fill="#cdcdcd"></path><path id="SvgjsPath1182" d="M 0 0L 111 0L 127 16L 127 42L 0 42L 0 0Z" stroke="none" fill="none"></path><g id="SvgjsG1183"><text id="SvgjsText1184" font-family="微软雅黑" text-anchor="middle" font-size="13px" width="33" fill="#323232" font-weight="400" align="middle" anchor="middle" family="微软雅黑" size="13px" weight="400" font-style="" y="11.05" transform="rotate(0)"><tspan id="SvgjsTspan1185" dy="16" x="63.5"><tspan id="SvgjsTspan1186" style="text-decoration:;">file2</tspan></tspan></text></g></g><g id="SvgjsG1187" transform="translate(820.5,612)"><path id="SvgjsPath1188" d="M 0 0L 111 0L 127 16L 127 42L 0 42L 0 0Z" stroke="none" fill-opacity="1" fill="#9999ff"></path><path id="SvgjsPath1189" d="M 111 0L 111 16L 127 16Z" stroke="none" fill-opacity="1" fill="#cdcdcd"></path><path id="SvgjsPath1190" d="M 0 0L 111 0L 127 16L 127 42L 0 42L 0 0Z" stroke="none" fill="none"></path><g id="SvgjsG1191"><text id="SvgjsText1192" font-family="微软雅黑" text-anchor="middle" font-size="13px" width="33" fill="#323232" font-weight="400" align="middle" anchor="middle" family="微软雅黑" size="13px" weight="400" font-style="" y="11.05" transform="rotate(0)"><tspan id="SvgjsTspan1193" dy="16" x="63.5"><tspan id="SvgjsTspan1194" style="text-decoration:;">file1</tspan></tspan></text></g></g><g id="SvgjsG1195" transform="translate(1314.5,612)"><path id="SvgjsPath1196" d="M 0 0L 111 0L 127 16L 127 42L 0 42L 0 0Z" stroke="none" fill-opacity="1" fill="#ff6666"></path><path id="SvgjsPath1197" d="M 111 0L 111 16L 127 16Z" stroke="none" fill-opacity="1" fill="#cdcdcd"></path><path id="SvgjsPath1198" d="M 0 0L 111 0L 127 16L 127 42L 0 42L 0 0Z" stroke="none" fill="none"></path><g id="SvgjsG1199"><text id="SvgjsText1200" font-family="微软雅黑" text-anchor="middle" font-size="13px" width="33" fill="#323232" font-weight="400" align="middle" anchor="middle" family="微软雅黑" size="13px" weight="400" font-style="" y="11.05" transform="rotate(0)"><tspan id="SvgjsTspan1201" dy="16" x="63.5"><tspan id="SvgjsTspan1202" style="text-decoration:;">file3</tspan></tspan></text></g></g><g id="SvgjsG1203" transform="translate(1124,296)"><path id="SvgjsPath1204" d="M 62.5 0L 125 113L 0 113Z" stroke="#323232" stroke-width="2" fill-opacity="1" fill="#ff3333"></path><g id="SvgjsG1205"><text id="SvgjsText1206" font-family="微软雅黑" text-anchor="middle" font-size="13px" width="57" fill="#323232" font-weight="400" align="middle" anchor="middle" family="微软雅黑" size="13px" weight="400" font-style="" y="60.675" transform="rotate(0)"><tspan id="SvgjsTspan1207" dy="16" x="62.5"><tspan id="SvgjsTspan1208" style="text-decoration:;">b72118</tspan></tspan></text></g></g><g id="SvgjsG1209"><path id="SvgjsPath1210" d="M1124.4641016151377 408.5L1029.2320508075688 408.5L1029.2320508075688 533L934 533" stroke="#ff3333" stroke-width="2" fill="none" marker-end="url(#SvgjsMarker1211)"></path></g><g id="SvgjsG1213"><path id="SvgjsPath1214" d="M1248.2679491924312 408.5L1368 408.5L1368 498" stroke="#ff3333" stroke-width="2" fill="none" marker-end="url(#SvgjsMarker1215)"></path></g><g id="SvgjsG1217"><path id="SvgjsPath1218" d="M1186.5 409L1186.5 606L482.5 606L482.5 576" stroke="#ff3333" stroke-width="2" fill="none" marker-end="url(#SvgjsMarker1219)"></path></g><g id="SvgjsG1221" transform="translate(1135.5,147.5)"><path id="SvgjsPath1222" d="M 0 47.5C 0 -15.833333333333334 102 -15.833333333333334 102 47.5C 102 110.83333333333333 0 110.83333333333333 0 47.5Z" stroke="#323232" stroke-width="2" fill-opacity="1" fill="#ff3333"></path><g id="SvgjsG1223"><text id="SvgjsText1224" font-family="微软雅黑" text-anchor="middle" font-size="13px" width="51" fill="#323232" font-weight="400" align="middle" anchor="middle" family="微软雅黑" size="13px" weight="400" font-style="" y="37.55" transform="rotate(0)"><tspan id="SvgjsTspan1225" dy="16" x="51"><tspan id="SvgjsTspan1226" style="text-decoration:;">ce907f</tspan></tspan></text></g></g><g id="SvgjsG1227"><path id="SvgjsPath1228" d="M1135.5 195L942.5779227453718 195L942.5779227453718 195.0416721678151L749.6558454907434 195.0416721678151" stroke="#ff3333" stroke-width="2" fill="none" marker-end="url(#SvgjsMarker1229)"></path></g><g id="SvgjsG1231" transform="translate(986,297)"><path id="SvgjsPath1232" d="M 16.666666666666668 0L 83.33333333333333 0C 105.55555555555556 0 105.55555555555556 50 83.33333333333333 50L 16.666666666666668 50C -5.555555555555556 50 -5.555555555555556 0 16.666666666666668 0Z" stroke="#ff6666" stroke-width="2" fill-opacity="1" fill="#ff9999"></path><g id="SvgjsG1233"><text id="SvgjsText1234" font-family="微软雅黑" text-anchor="middle" font-size="13px" width="45" fill="#323232" font-weight="400" align="middle" anchor="middle" family="微软雅黑" size="13px" weight="400" font-style="" y="15.05" transform="rotate(0)"><tspan id="SvgjsTspan1235" dy="16" x="50"><tspan id="SvgjsTspan1236" style="text-decoration:;">HEAD</tspan></tspan></text></g></g><g id="SvgjsG1237"><path id="SvgjsPath1238" d="M1036 297L1036 280.25L1036 280.25L1036 263.5" stroke="#ff9999" stroke-width="2" fill="none" marker-end="url(#SvgjsMarker1239)"></path></g><g id="SvgjsG1241" transform="translate(1309,170)"><path id="SvgjsPath1242" d="M 16.666666666666668 0L 83.33333333333333 0C 105.55555555555556 0 105.55555555555556 50 83.33333333333333 50L 16.666666666666668 50C -5.555555555555556 50 -5.555555555555556 0 16.666666666666668 0Z" stroke="#323232" stroke-width="2" fill-opacity="1" fill="#ff3333"></path><g id="SvgjsG1243"><text id="SvgjsText1244" font-family="微软雅黑" text-anchor="middle" font-size="13px" width="53" fill="#323232" font-weight="400" align="middle" anchor="middle" family="微软雅黑" size="13px" weight="400" font-style="" y="7.05" transform="rotate(0)"><tspan id="SvgjsTspan1245" dy="16" x="50"><tspan id="SvgjsTspan1246" style="text-decoration:;">new-</tspan></tspan><tspan id="SvgjsTspan1247" dy="16" x="50"><tspan id="SvgjsTspan1248" style="text-decoration:;">branch</tspan></tspan></text></g></g><g id="SvgjsG1249" transform="translate(1309,301)"><path id="SvgjsPath1250" d="M 16.666666666666668 0L 83.33333333333333 0C 105.55555555555556 0 105.55555555555556 50 83.33333333333333 50L 16.666666666666668 50C -5.555555555555556 50 -5.555555555555556 0 16.666666666666668 0Z" stroke="#ff6666" stroke-width="2" fill-opacity="1" fill="#ff3333"></path><g id="SvgjsG1251"><text id="SvgjsText1252" font-family="微软雅黑" text-anchor="middle" font-size="13px" width="45" fill="#323232" font-weight="400" align="middle" anchor="middle" family="微软雅黑" size="13px" weight="400" font-style="" y="15.05" transform="rotate(0)"><tspan id="SvgjsTspan1253" dy="16" x="50"><tspan id="SvgjsTspan1254" style="text-decoration:;">HEAD</tspan></tspan></text></g></g><g id="SvgjsG1255"><path id="SvgjsPath1256" d="M1359 301L1359 260.5L1359 260.5L1359 220" stroke="#ff3333" stroke-width="2" fill="none" marker-end="url(#SvgjsMarker1257)"></path></g><g id="SvgjsG1259"><path id="SvgjsPath1260" d="M1309 195L1273.25 195L1273.25 195L1237.5 195" stroke="#ff3333" stroke-width="2" fill="none" marker-end="url(#SvgjsMarker1261)"></path></g><g id="SvgjsG1263" transform="translate(969.75,357)"><path id="SvgjsPath1264" d="M 0 0L 116.5 0L 132.5 16L 132.5 44L 0 44L 0 0Z" stroke="none" fill-opacity="1" fill="#ff9999"></path><path id="SvgjsPath1265" d="M 116.5 0L 116.5 16L 132.5 16Z" stroke="none" fill-opacity="1" fill="#cdcdcd"></path><path id="SvgjsPath1266" d="M 0 0L 116.5 0L 132.5 16L 132.5 44L 0 44L 0 0Z" stroke="none" fill="none"></path><g id="SvgjsG1267"><text id="SvgjsText1268" font-family="微软雅黑" text-anchor="middle" font-size="13px" width="91" fill="#323232" font-weight="400" align="middle" anchor="middle" family="微软雅黑" size="13px" weight="400" font-style="" y="4.05" transform="rotate(0)"><tspan id="SvgjsTspan1269" dy="16" x="66.5"><tspan id="SvgjsTspan1270" style="text-decoration:;">git branch </tspan></tspan><tspan id="SvgjsTspan1271" dy="16" x="66.5"><tspan id="SvgjsTspan1272" style="text-decoration:;">new-branch</tspan></tspan></text></g></g><g id="SvgjsG1273" transform="translate(723,861)"><path id="SvgjsPath1274" d="M 0 37.5C 0 -12.5 81 -12.5 81 37.5C 81 87.5 0 87.5 0 37.5Z" stroke="#323232" stroke-width="2" fill-opacity="1" fill="#ffffff"></path><g id="SvgjsG1275"><text id="SvgjsText1276" font-family="微软雅黑" text-anchor="middle" font-size="13px" width="58" fill="#323232" font-weight="400" align="middle" anchor="middle" family="微软雅黑" size="13px" weight="400" font-style="" y="27.55" transform="rotate(0)"><tspan id="SvgjsTspan1277" dy="16" x="40.5"><tspan id="SvgjsTspan1278" style="text-decoration:;">commit</tspan></tspan></text></g></g><g id="SvgjsG1279" transform="translate(584.5,855.5)"><path id="SvgjsPath1280" d="M 45.75 0L 91.5 72L 0 72Z" stroke="#323232" stroke-width="2" fill-opacity="1" fill="#ffffff"></path><g id="SvgjsG1281"><text id="SvgjsText1282" font-family="微软雅黑" text-anchor="middle" font-size="13px" width="30" fill="#323232" font-weight="400" align="middle" anchor="middle" family="微软雅黑" size="13px" weight="400" font-style="" y="35.05" transform="rotate(0)"><tspan id="SvgjsTspan1283" dy="16" x="46"><tspan id="SvgjsTspan1284" style="text-decoration:;">tree</tspan></tspan></text></g></g><g id="SvgjsG1285"><path id="SvgjsPath1286" d="M1186.5 242.5L1186.5 269.25L1186.5 269.25L1186.5 296" stroke="#ff3333" stroke-width="2" fill="none" marker-end="url(#SvgjsMarker1287)"></path></g><g id="SvgjsG1289"><path id="SvgjsPath1290" d="M878 132L878 172.5L755.5 172.5" stroke="#3333ff" stroke-width="2" fill="none" marker-end="url(#SvgjsMarker1291)"></path></g><g id="SvgjsG1293"><path id="SvgjsPath1294" d="M672 107L750 107L750 107L828 107" stroke="#3333ff" stroke-width="2" fill="none" marker-end="url(#SvgjsMarker1295)"></path></g><g id="SvgjsG1297" transform="translate(439,867.5)"><path id="SvgjsPath1298" d="M 0 0L 87 0L 87 56L 0 56Z" stroke="#323232" stroke-width="2" fill-opacity="1" fill="#ffffff"></path><g id="SvgjsG1299"><text id="SvgjsText1300" font-family="微软雅黑" text-anchor="middle" font-size="13px" width="35" fill="#323232" font-weight="400" align="middle" anchor="middle" family="微软雅黑" size="13px" weight="400" font-style="" y="18.05" transform="rotate(0)"><tspan id="SvgjsTspan1301" dy="16" x="43.5"><tspan id="SvgjsTspan1302" style="text-decoration:;">blob</tspan></tspan></text></g></g><g id="SvgjsG1303" transform="translate(118,746)"><path id="SvgjsPath1304" d="M 0 0L 421 0L 437 16L 437 66L 0 66L 0 0Z" stroke="none" fill-opacity="1" fill="#ffffaa"></path><path id="SvgjsPath1305" d="M 421 0L 421 16L 437 16Z" stroke="none" fill-opacity="1" fill="#cdcdcd"></path><path id="SvgjsPath1306" d="M 0 0L 421 0L 437 16L 437 66L 0 66L 0 0Z" stroke="none" fill="none"></path><g id="SvgjsG1307"><text id="SvgjsText1308" font-family="微软雅黑" text-anchor="middle" font-size="13px" width="385" fill="#323232" font-weight="400" align="middle" anchor="middle" family="微软雅黑" size="13px" weight="400" font-style="" y="23.05" transform="rotate(0)"><tspan id="SvgjsTspan1309" dy="16" x="218.5"><tspan id="SvgjsTspan1310" style="text-decoration:;">两个文件。file1 和 file2 里面内容分别是：111 和 222</tspan></tspan></text></g></g><g id="SvgjsG1311" transform="translate(572,752)"><path id="SvgjsPath1312" d="M 0 0L 359.5 0L 375.5 16L 375.5 64L 0 64L 0 0Z" stroke="none" fill-opacity="1" fill="#ffffaa"></path><path id="SvgjsPath1313" d="M 359.5 0L 359.5 16L 375.5 16Z" stroke="none" fill-opacity="1" fill="#cdcdcd"></path><path id="SvgjsPath1314" d="M 0 0L 359.5 0L 375.5 16L 375.5 64L 0 64L 0 0Z" stroke="none" fill="none"></path><g id="SvgjsG1315"><text id="SvgjsText1316" font-family="微软雅黑" text-anchor="middle" font-size="13px" width="246" fill="#323232" font-weight="400" align="middle" anchor="middle" family="微软雅黑" size="13px" weight="400" font-style="" y="22.05" transform="rotate(0)"><tspan id="SvgjsTspan1317" dy="16" x="188"><tspan id="SvgjsTspan1318" style="text-decoration:;">两个文件。file1 的内容改为： 333</tspan></tspan></text></g></g><g id="SvgjsG1319" transform="translate(974,752)"><path id="SvgjsPath1320" d="M 0 0L 474 0L 490 16L 490 64L 0 64L 0 0Z" stroke="none" fill-opacity="1" fill="#ffffaa"></path><path id="SvgjsPath1321" d="M 474 0L 474 16L 490 16Z" stroke="none" fill-opacity="1" fill="#cdcdcd"></path><path id="SvgjsPath1322" d="M 0 0L 474 0L 490 16L 490 64L 0 64L 0 0Z" stroke="none" fill="none"></path><g id="SvgjsG1323"><text id="SvgjsText1324" font-family="微软雅黑" text-anchor="middle" font-size="13px" width="388" fill="#323232" font-weight="400" align="middle" anchor="middle" family="微软雅黑" size="13px" weight="400" font-style="" y="-9.95" transform="rotate(0)"><tspan id="SvgjsTspan1325" dy="16" x="245"><tspan id="SvgjsTspan1326" style="text-decoration:;"> </tspan></tspan><tspan id="SvgjsTspan1327" dy="16" x="245"><tspan id="SvgjsTspan1328" style="text-decoration:;">1. git branch new-branch 新建一个分支</tspan></tspan><tspan id="SvgjsTspan1329" dy="16" x="245"><tspan id="SvgjsTspan1330" style="text-decoration:;font-size: inherit;">2. git checkout new-branch 切换分支  </tspan></tspan><tspan id="SvgjsTspan1331" dy="16" x="245"><tspan id="SvgjsTspan1332" style="text-decoration:;">3.新加一个文件 file3，里面内容是 new-branch-file3  </tspan></tspan><tspan id="SvgjsTspan1333" dy="16" x="245"><tspan id="SvgjsTspan1334" style="text-decoration:;"> </tspan></tspan></text></g></g><g id="SvgjsG1335" transform="translate(118,861.75)"><path id="SvgjsPath1336" d="M 0 0L 231 0L 247 16L 247 73.5L 0 73.5L 0 0Z" stroke="none" fill-opacity="1" fill="#ffffaa"></path><path id="SvgjsPath1337" d="M 231 0L 231 16L 247 16Z" stroke="none" fill-opacity="1" fill="#cdcdcd"></path><path id="SvgjsPath1338" d="M 0 0L 231 0L 247 16L 247 73.5L 0 73.5L 0 0Z" stroke="none" fill="none"></path><g id="SvgjsG1339"><text id="SvgjsText1340" font-family="微软雅黑" text-anchor="middle" font-size="13px" width="189" fill="#323232" font-weight="400" align="middle" anchor="middle" family="微软雅黑" size="13px" weight="400" font-style="" y="26.8" transform="rotate(0)"><tspan id="SvgjsTspan1341" dy="16" x="123.5"><tspan id="SvgjsTspan1342" style="text-decoration:;">.git/objects 下的 obj 类型</tspan></tspan></text></g></g></svg>