<svg id="SvgjsSvg1305" width="1611" height="961" xmlns="http://www.w3.org/2000/svg" version="1.1" xmlns:xlink="http://www.w3.org/1999/xlink" xmlns:svgjs="http://svgjs.com/svgjs"><defs id="SvgjsDefs1306"><marker id="SvgjsMarker1374" markerWidth="16" markerHeight="12" refX="16" refY="6" viewBox="0 0 16 12" orient="auto" markerUnits="userSpaceOnUse"><path id="SvgjsPath1375" d="M0,2 L14,6 L0,11 L0,2" fill="#33ffff" stroke="#33ffff" stroke-width="2"></path></marker><marker id="SvgjsMarker1378" markerWidth="16" markerHeight="12" refX="16" refY="6" viewBox="0 0 16 12" orient="auto" markerUnits="userSpaceOnUse"><path id="SvgjsPath1379" d="M0,2 L14,6 L0,11 L0,2" fill="#33ffff" stroke="#33ffff" stroke-width="2"></path></marker><marker id="SvgjsMarker1382" markerWidth="16" markerHeight="12" refX="16" refY="6" viewBox="0 0 16 12" orient="auto" markerUnits="userSpaceOnUse"><path id="SvgjsPath1383" d="M0,2 L14,6 L0,11 L0,2" fill="#33ffff" stroke="#33ffff" stroke-width="2"></path></marker><marker id="SvgjsMarker1398" markerWidth="16" markerHeight="12" refX="16" refY="6" viewBox="0 0 16 12" orient="auto" markerUnits="userSpaceOnUse"><path id="SvgjsPath1399" d="M0,2 L14,6 L0,11 L0,2" fill="#33ffff" stroke="#33ffff" stroke-width="2"></path></marker><marker id="SvgjsMarker1416" markerWidth="16" markerHeight="12" refX="16" refY="6" viewBox="0 0 16 12" orient="auto" markerUnits="userSpaceOnUse"><path id="SvgjsPath1417" d="M0,2 L14,6 L0,11 L0,2" fill="#6666ff" stroke="#6666ff" stroke-width="2"></path></marker><marker id="SvgjsMarker1420" markerWidth="16" markerHeight="12" refX="16" refY="6" viewBox="0 0 16 12" orient="auto" markerUnits="userSpaceOnUse"><path id="SvgjsPath1421" d="M0,2 L14,6 L0,11 L0,2" fill="#6666ff" stroke="#6666ff" stroke-width="2"></path></marker><marker id="SvgjsMarker1430" markerWidth="16" markerHeight="12" refX="16" refY="6" viewBox="0 0 16 12" orient="auto" markerUnits="userSpaceOnUse"><path id="SvgjsPath1431" d="M0,2 L14,6 L0,11 L0,2" fill="#33ffff" stroke="#33ffff" stroke-width="2"></path></marker><marker id="SvgjsMarker1434" markerWidth="16" markerHeight="12" refX="16" refY="6" viewBox="0 0 16 12" orient="auto" markerUnits="userSpaceOnUse"><path id="SvgjsPath1435" d="M0,2 L14,6 L0,11 L0,2" fill="#3333ff" stroke="#3333ff" stroke-width="2"></path></marker><marker id="SvgjsMarker1438" markerWidth="16" markerHeight="12" refX="16" refY="6" viewBox="0 0 16 12" orient="auto" markerUnits="userSpaceOnUse"><path id="SvgjsPath1439" d="M0,2 L14,6 L0,11 L0,2" fill="#3333ff" stroke="#3333ff" stroke-width="2"></path></marker><marker id="SvgjsMarker1462" markerWidth="16" markerHeight="12" refX="16" refY="6" viewBox="0 0 16 12" orient="auto" markerUnits="userSpaceOnUse"><path id="SvgjsPath1463" d="M0,2 L14,6 L0,11 L0,2" fill="#ff9999" stroke="#ff9999" stroke-width="2"></path></marker><marker id="SvgjsMarker1512" markerWidth="16" markerHeight="12" refX="16" refY="6" viewBox="0 0 16 12" orient="auto" markerUnits="userSpaceOnUse"><path id="SvgjsPath1513" d="M0,2 L14,6 L0,11 L0,2" fill="#ff3333" stroke="#ff3333" stroke-width="2"></path></marker><marker id="SvgjsMarker1516" markerWidth="16" markerHeight="12" refX="16" refY="6" viewBox="0 0 16 12" orient="auto" markerUnits="userSpaceOnUse"><path id="SvgjsPath1517" d="M0,2 L14,6 L0,11 L0,2" fill="#ff3333" stroke="#ff3333" stroke-width="2"></path></marker><marker id="SvgjsMarker1520" markerWidth="16" markerHeight="12" refX="16" refY="6" viewBox="0 0 16 12" orient="auto" markerUnits="userSpaceOnUse"><path id="SvgjsPath1521" d="M0,2 L14,6 L0,11 L0,2" fill="#ff3333" stroke="#ff3333" stroke-width="2"></path></marker><marker id="SvgjsMarker1530" markerWidth="16" markerHeight="12" refX="16" refY="6" viewBox="0 0 16 12" orient="auto" markerUnits="userSpaceOnUse"><path id="SvgjsPath1531" d="M0,2 L14,6 L0,11 L0,2" fill="#ff3333" stroke="#ff3333" stroke-width="2"></path></marker><marker id="SvgjsMarker1540" markerWidth="16" markerHeight="12" refX="16" refY="6" viewBox="0 0 16 12" orient="auto" markerUnits="userSpaceOnUse"><path id="SvgjsPath1541" d="M0,2 L14,6 L0,11 L0,2" fill="#ff9999" stroke="#ff9999" stroke-width="2"></path></marker><marker id="SvgjsMarker1558" markerWidth="16" markerHeight="12" refX="16" refY="6" viewBox="0 0 16 12" orient="auto" markerUnits="userSpaceOnUse"><path id="SvgjsPath1559" d="M0,2 L14,6 L0,11 L0,2" fill="#ff3333" stroke="#ff3333" stroke-width="2"></path></marker><marker id="SvgjsMarker1562" markerWidth="16" markerHeight="12" refX="16" refY="6" viewBox="0 0 16 12" orient="auto" markerUnits="userSpaceOnUse"><path id="SvgjsPath1563" d="M0,2 L14,6 L0,11 L0,2" fill="#ff3333" stroke="#ff3333" stroke-width="2"></path></marker><marker id="SvgjsMarker1588" markerWidth="16" markerHeight="12" refX="16" refY="6" viewBox="0 0 16 12" orient="auto" markerUnits="userSpaceOnUse"><path id="SvgjsPath1589" d="M0,2 L14,6 L0,11 L0,2" fill="#ff3333" stroke="#ff3333" stroke-width="2"></path></marker><marker id="SvgjsMarker1592" markerWidth="16" markerHeight="12" refX="16" refY="6" viewBox="0 0 16 12" orient="auto" markerUnits="userSpaceOnUse"><path id="SvgjsPath1593" d="M0,2 L14,6 L0,11 L0,2" fill="#3333ff" stroke="#3333ff" stroke-width="2"></path></marker><marker id="SvgjsMarker1596" markerWidth="16" markerHeight="12" refX="16" refY="6" viewBox="0 0 16 12" orient="auto" markerUnits="userSpaceOnUse"><path id="SvgjsPath1597" d="M0,2 L14,6 L0,11 L0,2" fill="#3333ff" stroke="#3333ff" stroke-width="2"></path></marker></defs><g id="SvgjsG1307" transform="translate(967,25)"><path id="SvgjsPath1308" d="M 0 0L 504 0L 504 707L 0 707Z" stroke="#ff3333" stroke-width="2" fill="none"></path><path id="SvgjsPath1309" d="M 0 0L 504 0L 504 40L 0 40Z" stroke="#ff3333" stroke-width="2" fill-opacity="1" fill="#ffffff"></path><g id="SvgjsG1310"><text id="SvgjsText1311" font-family="微软雅黑" text-anchor="middle" font-size="16px" width="272" fill="#323232" font-weight="400" align="middle" anchor="middle" family="微软雅黑" size="16px" weight="400" font-style="" y="7.6" transform="rotate(0)"><tspan id="SvgjsTspan1312" dy="20" x="252"><tspan id="SvgjsTspan1313" style="text-decoration:;">3. git branch / git add / git commit </tspan></tspan></text></g></g><g id="SvgjsG1314" transform="translate(118,26)"><path id="SvgjsPath1315" d="M 0 0L 437 0L 437 711L 0 711Z" stroke="#33ffff" stroke-width="2" fill="none"></path><path id="SvgjsPath1316" d="M 0 0L 437 0L 437 40L 0 40Z" stroke="#33ffff" stroke-width="2" fill-opacity="1" fill="#ffffff"></path><g id="SvgjsG1317"><text id="SvgjsText1318" font-family="微软雅黑" text-anchor="middle" font-size="16px" width="172" fill="#323232" font-weight="400" align="middle" anchor="middle" family="微软雅黑" size="16px" weight="400" font-style="" y="7.6" transform="rotate(0)"><tspan id="SvgjsTspan1319" dy="20" x="218.5"><tspan id="SvgjsTspan1320" style="text-decoration:;">1. git add / git commit</tspan></tspan></text></g></g><g id="SvgjsG1321" transform="translate(569,28)"><path id="SvgjsPath1322" d="M 0 0L 389 0L 389 707L 0 707Z" stroke="#3333ff" stroke-width="2" fill="none"></path><path id="SvgjsPath1323" d="M 0 0L 389 0L 389 40L 0 40Z" stroke="#3333ff" stroke-width="2" fill-opacity="1" fill="#ffffff"></path><g id="SvgjsG1324"><text id="SvgjsText1325" font-family="微软雅黑" text-anchor="middle" font-size="16px" width="172" fill="#323232" font-weight="400" align="middle" anchor="middle" family="微软雅黑" size="16px" weight="400" font-style="" y="7.6" transform="rotate(0)"><tspan id="SvgjsTspan1326" dy="20" x="194.5"><tspan id="SvgjsTspan1327" style="text-decoration:;">2. git add / git commit</tspan></tspan></text></g></g><g id="SvgjsG1328" transform="translate(25,484)"><path id="SvgjsPath1329" d="M 0 0L 1561.25 0L 1561.25 98L 0 98Z" stroke="#007fff" stroke-width="2" fill="none"></path><path id="SvgjsPath1330" d="M 0 0L 40 0L 40 98L 0 98Z" stroke="#007fff" stroke-width="2" fill-opacity="1" fill="#ffff00"></path><g id="SvgjsG1331"><text id="SvgjsText1332" font-family="微软雅黑" text-anchor="middle" font-size="16px" width="72" fill="#323232" font-weight="400" align="middle" anchor="middle" family="微软雅黑" size="16px" weight="400" font-style="" y="7.6" transform="rotate(270)"><tspan id="SvgjsTspan1333" dy="20" x="-49"><tspan id="SvgjsTspan1334" style="text-decoration:;">1. git add</tspan></tspan></text></g></g><g id="SvgjsG1335" transform="translate(25,74)"><path id="SvgjsPath1336" d="M 0 0L 1561.25 0L 1561.25 381.5L 0 381.5Z" stroke="#323232" stroke-width="2" fill="none"></path><path id="SvgjsPath1337" d="M 0 0L 40 0L 40 381.5L 0 381.5Z" stroke="#323232" stroke-width="2" fill-opacity="1" fill="#ff3333"></path><g id="SvgjsG1338"><text id="SvgjsText1339" font-family="微软雅黑" text-anchor="middle" font-size="16px" width="102" fill="#323232" font-weight="400" align="middle" anchor="middle" family="微软雅黑" size="16px" weight="400" font-style="" y="7.6" transform="rotate(270)"><tspan id="SvgjsTspan1340" dy="20" x="-190.5"><tspan id="SvgjsTspan1341" style="text-decoration:;">2. git commit</tspan></tspan></text></g></g><g id="SvgjsG1342" transform="translate(169,498)"><path id="SvgjsPath1343" d="M 0 0L 100 0L 100 70L 0 70Z" stroke="#323232" stroke-width="2" fill-opacity="1" fill="#99ffff"></path><g id="SvgjsG1344"><text id="SvgjsText1345" font-family="微软雅黑" text-anchor="middle" font-size="13px" width="75" fill="#323232" font-weight="400" align="middle" anchor="middle" family="微软雅黑" size="13px" weight="400" font-style="" y="9.05" transform="rotate(0)"><tspan id="SvgjsTspan1346" dy="16" x="50"><tspan id="SvgjsTspan1347" style="text-decoration:;"> </tspan></tspan><tspan id="SvgjsTspan1348" dy="16" x="50"><tspan id="SvgjsTspan1349" style="text-decoration:;">58c9bd11</tspan></tspan><tspan id="SvgjsTspan1350" dy="16" x="50"><tspan id="SvgjsTspan1351" style="text-decoration:;">1</tspan></tspan></text></g></g><g id="SvgjsG1352" transform="translate(434,506)"><path id="SvgjsPath1353" d="M 0 0L 100 0L 100 70L 0 70Z" stroke="#323232" stroke-width="2" fill-opacity="1" fill="#99ffff"></path><g id="SvgjsG1354"><text id="SvgjsText1355" font-family="微软雅黑" text-anchor="middle" font-size="13px" width="55" fill="#323232" font-weight="400" align="middle" anchor="middle" family="微软雅黑" size="13px" weight="400" font-style="" y="17.05" transform="rotate(0)"><tspan id="SvgjsTspan1356" dy="16" x="50"><tspan id="SvgjsTspan1357" style="text-decoration:;">c20090</tspan></tspan><tspan id="SvgjsTspan1358" dy="16" x="50"><tspan id="SvgjsTspan1359" style="text-decoration:;">222</tspan></tspan></text></g></g><g id="SvgjsG1360" transform="translate(294,296)"><path id="SvgjsPath1361" d="M 62.5 0L 125 113L 0 113Z" stroke="#323232" stroke-width="2" fill-opacity="1" fill="#33ffff"></path><g id="SvgjsG1362"><text id="SvgjsText1363" font-family="微软雅黑" text-anchor="middle" font-size="13px" width="53" fill="#323232" font-weight="400" align="middle" anchor="middle" family="微软雅黑" size="13px" weight="400" font-style="" y="60.675" transform="rotate(0)"><tspan id="SvgjsTspan1364" dy="16" x="62.5"><tspan id="SvgjsTspan1365" style="text-decoration:;">d964f4</tspan></tspan></text></g></g><g id="SvgjsG1366" transform="translate(305.5,125)"><path id="SvgjsPath1367" d="M 0 47.5C 0 -15.833333333333334 102 -15.833333333333334 102 47.5C 102 110.83333333333333 0 110.83333333333333 0 47.5Z" stroke="#323232" stroke-width="2" fill-opacity="1" fill="#33ffff"></path><g id="SvgjsG1368"><text id="SvgjsText1369" font-family="微软雅黑" text-anchor="middle" font-size="13px" width="52" fill="#323232" font-weight="400" align="middle" anchor="middle" family="微软雅黑" size="13px" weight="400" font-style="" y="37.55" transform="rotate(0)"><tspan id="SvgjsTspan1370" dy="16" x="51"><tspan id="SvgjsTspan1371" style="text-decoration:;">471f4e</tspan></tspan></text></g></g><g id="SvgjsG1372"><path id="SvgjsPath1373" d="M294.8126155740733 408.1547634765186L219 408.1547634765186L219 498" stroke="#33ffff" stroke-width="2" fill="none" marker-end="url(#SvgjsMarker1374)"></path></g><g id="SvgjsG1376"><path id="SvgjsPath1377" d="M418.09369221296333 407.5773817382593L484 407.5773817382593L484 506" stroke="#33ffff" stroke-width="2" fill="none" marker-end="url(#SvgjsMarker1378)"></path></g><g id="SvgjsG1380"><path id="SvgjsPath1381" d="M356.5 220L356.5 258L356.5 258L356.5 296" stroke="#33ffff" stroke-width="2" fill="none" marker-end="url(#SvgjsMarker1382)"></path></g><g id="SvgjsG1384" transform="translate(154,147.5)"><path id="SvgjsPath1385" d="M 16.666666666666668 0L 83.33333333333333 0C 105.55555555555556 0 105.55555555555556 50 83.33333333333333 50L 16.666666666666668 50C -5.555555555555556 50 -5.555555555555556 0 16.666666666666668 0Z" stroke="#323232" stroke-width="2" fill-opacity="1" fill="#33ffff"></path><g id="SvgjsG1386"><text id="SvgjsText1387" font-family="微软雅黑" text-anchor="middle" font-size="13px" width="52" fill="#323232" font-weight="400" align="middle" anchor="middle" family="微软雅黑" size="13px" weight="400" font-style="" y="15.05" transform="rotate(0)"><tspan id="SvgjsTspan1388" dy="16" x="50"><tspan id="SvgjsTspan1389" style="text-decoration:;">master</tspan></tspan></text></g></g><g id="SvgjsG1390" transform="translate(154,78)"><path id="SvgjsPath1391" d="M 16.666666666666668 0L 83.33333333333333 0C 105.55555555555556 0 105.55555555555556 50 83.33333333333333 50L 16.666666666666668 50C -5.555555555555556 50 -5.555555555555556 0 16.666666666666668 0Z" stroke="#323232" stroke-width="2" fill-opacity="1" fill="#33ffff"></path><g id="SvgjsG1392"><text id="SvgjsText1393" font-family="微软雅黑" text-anchor="middle" font-size="13px" width="45" fill="#323232" font-weight="400" align="middle" anchor="middle" family="微软雅黑" size="13px" weight="400" font-style="" y="15.05" transform="rotate(0)"><tspan id="SvgjsTspan1394" dy="16" x="50"><tspan id="SvgjsTspan1395" style="text-decoration:;">HEAD</tspan></tspan></text></g></g><g id="SvgjsG1396"><path id="SvgjsPath1397" d="M204 128L204 137.75L204 137.75L204 147.5" stroke="#33ffff" stroke-width="2" fill="none" marker-end="url(#SvgjsMarker1398)"></path></g><g id="SvgjsG1400" transform="translate(834,498)"><path id="SvgjsPath1401" d="M 0 0L 100 0L 100 70L 0 70Z" stroke="#6666ff" stroke-width="2" fill-opacity="1" fill="#6666ff"></path><g id="SvgjsG1402"><text id="SvgjsText1403" font-family="微软雅黑" text-anchor="middle" font-size="13px" width="56" fill="#323232" font-weight="400" align="middle" anchor="middle" family="微软雅黑" size="13px" weight="400" font-style="" y="17.05" transform="rotate(0)"><tspan id="SvgjsTspan1404" dy="16" x="50"><tspan id="SvgjsTspan1405" style="text-decoration:;">55bdca</tspan></tspan><tspan id="SvgjsTspan1406" dy="16" x="50"><tspan id="SvgjsTspan1407" style="text-decoration:;">333</tspan></tspan></text></g></g><g id="SvgjsG1408" transform="translate(642,301)"><path id="SvgjsPath1409" d="M 62.5 0L 125 113L 0 113Z" stroke="#323232" stroke-width="2" fill-opacity="1" fill="#3333ff"></path><g id="SvgjsG1410"><text id="SvgjsText1411" font-family="微软雅黑" text-anchor="middle" font-size="13px" width="53" fill="#323232" font-weight="400" align="middle" anchor="middle" family="微软雅黑" size="13px" weight="400" font-style="" y="60.675" transform="rotate(0)"><tspan id="SvgjsTspan1412" dy="16" x="62.5"><tspan id="SvgjsTspan1413" style="text-decoration:;">d964f4</tspan></tspan></text></g></g><g id="SvgjsG1414"><path id="SvgjsPath1415" d="M763.467911113762 413.7144247806269L884 413.7144247806269L884 498" stroke="#6666ff" stroke-width="2" fill="none" marker-end="url(#SvgjsMarker1416)"></path></g><g id="SvgjsG1418"><path id="SvgjsPath1419" d="M643.924038765061 411.13175911166536L516 411.13175911166536L516 506" stroke="#6666ff" stroke-width="2" fill="none" marker-end="url(#SvgjsMarker1420)"></path></g><g id="SvgjsG1422" transform="translate(653.5,125)"><path id="SvgjsPath1423" d="M 0 47.5C 0 -15.833333333333334 102 -15.833333333333334 102 47.5C 102 110.83333333333333 0 110.83333333333333 0 47.5Z" stroke="#323232" stroke-width="2" fill-opacity="1" fill="#3333ff"></path><g id="SvgjsG1424"><text id="SvgjsText1425" font-family="微软雅黑" text-anchor="middle" font-size="13px" width="52" fill="#323232" font-weight="400" align="middle" anchor="middle" family="微软雅黑" size="13px" weight="400" font-style="" y="37.55" transform="rotate(0)"><tspan id="SvgjsTspan1426" dy="16" x="51"><tspan id="SvgjsTspan1427" style="text-decoration:;">26fd5c</tspan></tspan></text></g></g><g id="SvgjsG1428"><path id="SvgjsPath1429" d="M254 172.5L279.75 172.5L279.75 172.5L305.5 172.5" stroke="#33ffff" stroke-width="2" fill="none" marker-end="url(#SvgjsMarker1430)"></path></g><g id="SvgjsG1432"><path id="SvgjsPath1433" d="M653.5 172.5L530.5 172.5L530.5 172.5L407.5 172.5" stroke="#3333ff" stroke-width="2" fill="none" marker-end="url(#SvgjsMarker1434)"></path></g><g id="SvgjsG1436"><path id="SvgjsPath1437" d="M704.5 220L704.5 260.5L704.5 260.5L704.5 301" stroke="#3333ff" stroke-width="2" fill="none" marker-end="url(#SvgjsMarker1438)"></path></g><g id="SvgjsG1440" transform="translate(828,82)"><path id="SvgjsPath1441" d="M 16.666666666666668 0L 83.33333333333333 0C 105.55555555555556 0 105.55555555555556 50 83.33333333333333 50L 16.666666666666668 50C -5.555555555555556 50 -5.555555555555556 0 16.666666666666668 0Z" stroke="#323232" stroke-width="2" fill-opacity="1" fill="#3333ff"></path><g id="SvgjsG1442"><text id="SvgjsText1443" font-family="微软雅黑" text-anchor="middle" font-size="13px" width="52" fill="#323232" font-weight="400" align="middle" anchor="middle" family="微软雅黑" size="13px" weight="400" font-style="" y="15.05" transform="rotate(0)"><tspan id="SvgjsTspan1444" dy="16" x="50"><tspan id="SvgjsTspan1445" style="text-decoration:;">master</tspan></tspan></text></g></g><g id="SvgjsG1446" transform="translate(572,82)"><path id="SvgjsPath1447" d="M 16.666666666666668 0L 83.33333333333333 0C 105.55555555555556 0 105.55555555555556 50 83.33333333333333 50L 16.666666666666668 50C -5.555555555555556 50 -5.555555555555556 0 16.666666666666668 0Z" stroke="#323232" stroke-width="2" fill-opacity="1" fill="#3333ff"></path><g id="SvgjsG1448"><text id="SvgjsText1449" font-family="微软雅黑" text-anchor="middle" font-size="13px" width="45" fill="#323232" font-weight="400" align="middle" anchor="middle" family="微软雅黑" size="13px" weight="400" font-style="" y="15.05" transform="rotate(0)"><tspan id="SvgjsTspan1450" dy="16" x="50"><tspan id="SvgjsTspan1451" style="text-decoration:;">HEAD</tspan></tspan></text></g></g><g id="SvgjsG1452" transform="translate(986,213.5)"><path id="SvgjsPath1453" d="M 16.666666666666668 0L 83.33333333333333 0C 105.55555555555556 0 105.55555555555556 50 83.33333333333333 50L 16.666666666666668 50C -5.555555555555556 50 -5.555555555555556 0 16.666666666666668 0Z" stroke="#323232" stroke-width="2" fill-opacity="1" fill="#ff9999"></path><g id="SvgjsG1454"><text id="SvgjsText1455" font-family="微软雅黑" text-anchor="middle" font-size="13px" width="53" fill="#323232" font-weight="400" align="middle" anchor="middle" family="微软雅黑" size="13px" weight="400" font-style="" y="7.05" transform="rotate(0)"><tspan id="SvgjsTspan1456" dy="16" x="50"><tspan id="SvgjsTspan1457" style="text-decoration:;">new-</tspan></tspan><tspan id="SvgjsTspan1458" dy="16" x="50"><tspan id="SvgjsTspan1459" style="text-decoration:;">branch</tspan></tspan></text></g></g><g id="SvgjsG1460"><path id="SvgjsPath1461" d="M986 238.5L736.7144247806269 238.5L736.7144247806269 209.46791111376206" stroke="#ff9999" stroke-width="2" fill="none" marker-end="url(#SvgjsMarker1462)"></path></g><g id="SvgjsG1464" transform="translate(1318,498)"><path id="SvgjsPath1465" d="M 0 0L 100 0L 100 70L 0 70Z" stroke="#323232" stroke-width="2" fill-opacity="1" fill="#ff6666"></path><g id="SvgjsG1466"><text id="SvgjsText1467" font-family="微软雅黑" text-anchor="middle" font-size="13px" width="53" fill="#323232" font-weight="400" align="middle" anchor="middle" family="微软雅黑" size="13px" weight="400" font-style="" y="17.05" transform="rotate(0)"><tspan id="SvgjsTspan1468" dy="16" x="50"><tspan id="SvgjsTspan1469" style="text-decoration:;">7c8ac2</tspan></tspan><tspan id="SvgjsTspan1470" dy="16" x="50"><tspan id="SvgjsTspan1471" style="text-decoration:;">file3</tspan></tspan></text></g></g><g id="SvgjsG1472" transform="translate(150,604)"><path id="SvgjsPath1473" d="M 0 0L 111 0L 127 16L 127 42L 0 42L 0 0Z" stroke="none" fill-opacity="1" fill="#ccffff"></path><path id="SvgjsPath1474" d="M 111 0L 111 16L 127 16Z" stroke="none" fill-opacity="1" fill="#cdcdcd"></path><path id="SvgjsPath1475" d="M 0 0L 111 0L 127 16L 127 42L 0 42L 0 0Z" stroke="none" fill="none"></path><g id="SvgjsG1476"><text id="SvgjsText1477" font-family="微软雅黑" text-anchor="middle" font-size="13px" width="33" fill="#323232" font-weight="400" align="middle" anchor="middle" family="微软雅黑" size="13px" weight="400" font-style="" y="11.05" transform="rotate(0)"><tspan id="SvgjsTspan1478" dy="16" x="63.5"><tspan id="SvgjsTspan1479" style="text-decoration:;">file1</tspan></tspan></text></g></g><g id="SvgjsG1480" transform="translate(419,604)"><path id="SvgjsPath1481" d="M 0 0L 111 0L 127 16L 127 42L 0 42L 0 0Z" stroke="none" fill-opacity="1" fill="#ccffff"></path><path id="SvgjsPath1482" d="M 111 0L 111 16L 127 16Z" stroke="none" fill-opacity="1" fill="#cdcdcd"></path><path id="SvgjsPath1483" d="M 0 0L 111 0L 127 16L 127 42L 0 42L 0 0Z" stroke="none" fill="none"></path><g id="SvgjsG1484"><text id="SvgjsText1485" font-family="微软雅黑" text-anchor="middle" font-size="13px" width="33" fill="#323232" font-weight="400" align="middle" anchor="middle" family="微软雅黑" size="13px" weight="400" font-style="" y="11.05" transform="rotate(0)"><tspan id="SvgjsTspan1486" dy="16" x="63.5"><tspan id="SvgjsTspan1487" style="text-decoration:;">file2</tspan></tspan></text></g></g><g id="SvgjsG1488" transform="translate(820.5,612)"><path id="SvgjsPath1489" d="M 0 0L 111 0L 127 16L 127 42L 0 42L 0 0Z" stroke="none" fill-opacity="1" fill="#9999ff"></path><path id="SvgjsPath1490" d="M 111 0L 111 16L 127 16Z" stroke="none" fill-opacity="1" fill="#cdcdcd"></path><path id="SvgjsPath1491" d="M 0 0L 111 0L 127 16L 127 42L 0 42L 0 0Z" stroke="none" fill="none"></path><g id="SvgjsG1492"><text id="SvgjsText1493" font-family="微软雅黑" text-anchor="middle" font-size="13px" width="33" fill="#323232" font-weight="400" align="middle" anchor="middle" family="微软雅黑" size="13px" weight="400" font-style="" y="11.05" transform="rotate(0)"><tspan id="SvgjsTspan1494" dy="16" x="63.5"><tspan id="SvgjsTspan1495" style="text-decoration:;">file1</tspan></tspan></text></g></g><g id="SvgjsG1496" transform="translate(1314.5,612)"><path id="SvgjsPath1497" d="M 0 0L 111 0L 127 16L 127 42L 0 42L 0 0Z" stroke="none" fill-opacity="1" fill="#ff6666"></path><path id="SvgjsPath1498" d="M 111 0L 111 16L 127 16Z" stroke="none" fill-opacity="1" fill="#cdcdcd"></path><path id="SvgjsPath1499" d="M 0 0L 111 0L 127 16L 127 42L 0 42L 0 0Z" stroke="none" fill="none"></path><g id="SvgjsG1500"><text id="SvgjsText1501" font-family="微软雅黑" text-anchor="middle" font-size="13px" width="33" fill="#323232" font-weight="400" align="middle" anchor="middle" family="微软雅黑" size="13px" weight="400" font-style="" y="11.05" transform="rotate(0)"><tspan id="SvgjsTspan1502" dy="16" x="63.5"><tspan id="SvgjsTspan1503" style="text-decoration:;">file3</tspan></tspan></text></g></g><g id="SvgjsG1504" transform="translate(1124,296)"><path id="SvgjsPath1505" d="M 62.5 0L 125 113L 0 113Z" stroke="#323232" stroke-width="2" fill-opacity="1" fill="#ff3333"></path><g id="SvgjsG1506"><text id="SvgjsText1507" font-family="微软雅黑" text-anchor="middle" font-size="13px" width="49" fill="#323232" font-weight="400" align="middle" anchor="middle" family="微软雅黑" size="13px" weight="400" font-style="" y="60.675" transform="rotate(0)"><tspan id="SvgjsTspan1508" dy="16" x="62.5"><tspan id="SvgjsTspan1509" style="text-decoration:;">da8f0f</tspan></tspan></text></g></g><g id="SvgjsG1510"><path id="SvgjsPath1511" d="M1124.4641016151377 408.5L1029.2320508075688 408.5L1029.2320508075688 533L934 533" stroke="#ff3333" stroke-width="2" fill="none" marker-end="url(#SvgjsMarker1512)"></path></g><g id="SvgjsG1514"><path id="SvgjsPath1515" d="M1248.2679491924312 408.5L1368 408.5L1368 498" stroke="#ff3333" stroke-width="2" fill="none" marker-end="url(#SvgjsMarker1516)"></path></g><g id="SvgjsG1518"><path id="SvgjsPath1519" d="M1186.5 409L1186.5 606L484 606L484 576" stroke="#ff3333" stroke-width="2" fill="none" marker-end="url(#SvgjsMarker1520)"></path></g><g id="SvgjsG1522" transform="translate(1135.5,147.5)"><path id="SvgjsPath1523" d="M 0 47.5C 0 -15.833333333333334 102 -15.833333333333334 102 47.5C 102 110.83333333333333 0 110.83333333333333 0 47.5Z" stroke="#323232" stroke-width="2" fill-opacity="1" fill="#ff3333"></path><g id="SvgjsG1524"><text id="SvgjsText1525" font-family="微软雅黑" text-anchor="middle" font-size="13px" width="58" fill="#323232" font-weight="400" align="middle" anchor="middle" family="微软雅黑" size="13px" weight="400" font-style="" y="37.55" transform="rotate(0)"><tspan id="SvgjsTspan1526" dy="16" x="51"><tspan id="SvgjsTspan1527" style="text-decoration:;">8971bd</tspan></tspan></text></g></g><g id="SvgjsG1528"><path id="SvgjsPath1529" d="M1135.5 195L942.5779227453718 195L942.5779227453718 195.0416721678151L749.6558454907434 195.0416721678151" stroke="#ff3333" stroke-width="2" fill="none" marker-end="url(#SvgjsMarker1530)"></path></g><g id="SvgjsG1532" transform="translate(986,297)"><path id="SvgjsPath1533" d="M 16.666666666666668 0L 83.33333333333333 0C 105.55555555555556 0 105.55555555555556 50 83.33333333333333 50L 16.666666666666668 50C -5.555555555555556 50 -5.555555555555556 0 16.666666666666668 0Z" stroke="#ff6666" stroke-width="2" fill-opacity="1" fill="#ff9999"></path><g id="SvgjsG1534"><text id="SvgjsText1535" font-family="微软雅黑" text-anchor="middle" font-size="13px" width="45" fill="#323232" font-weight="400" align="middle" anchor="middle" family="微软雅黑" size="13px" weight="400" font-style="" y="15.05" transform="rotate(0)"><tspan id="SvgjsTspan1536" dy="16" x="50"><tspan id="SvgjsTspan1537" style="text-decoration:;">HEAD</tspan></tspan></text></g></g><g id="SvgjsG1538"><path id="SvgjsPath1539" d="M1036 297L1036 280.25L1036 280.25L1036 263.5" stroke="#ff9999" stroke-width="2" fill="none" marker-end="url(#SvgjsMarker1540)"></path></g><g id="SvgjsG1542" transform="translate(1309,170)"><path id="SvgjsPath1543" d="M 16.666666666666668 0L 83.33333333333333 0C 105.55555555555556 0 105.55555555555556 50 83.33333333333333 50L 16.666666666666668 50C -5.555555555555556 50 -5.555555555555556 0 16.666666666666668 0Z" stroke="#323232" stroke-width="2" fill-opacity="1" fill="#ff3333"></path><g id="SvgjsG1544"><text id="SvgjsText1545" font-family="微软雅黑" text-anchor="middle" font-size="13px" width="53" fill="#323232" font-weight="400" align="middle" anchor="middle" family="微软雅黑" size="13px" weight="400" font-style="" y="7.05" transform="rotate(0)"><tspan id="SvgjsTspan1546" dy="16" x="50"><tspan id="SvgjsTspan1547" style="text-decoration:;">new-</tspan></tspan><tspan id="SvgjsTspan1548" dy="16" x="50"><tspan id="SvgjsTspan1549" style="text-decoration:;">branch</tspan></tspan></text></g></g><g id="SvgjsG1550" transform="translate(1309,301)"><path id="SvgjsPath1551" d="M 16.666666666666668 0L 83.33333333333333 0C 105.55555555555556 0 105.55555555555556 50 83.33333333333333 50L 16.666666666666668 50C -5.555555555555556 50 -5.555555555555556 0 16.666666666666668 0Z" stroke="#ff6666" stroke-width="2" fill-opacity="1" fill="#ff3333"></path><g id="SvgjsG1552"><text id="SvgjsText1553" font-family="微软雅黑" text-anchor="middle" font-size="13px" width="45" fill="#323232" font-weight="400" align="middle" anchor="middle" family="微软雅黑" size="13px" weight="400" font-style="" y="15.05" transform="rotate(0)"><tspan id="SvgjsTspan1554" dy="16" x="50"><tspan id="SvgjsTspan1555" style="text-decoration:;">HEAD</tspan></tspan></text></g></g><g id="SvgjsG1556"><path id="SvgjsPath1557" d="M1359 301L1359 260.5L1359 260.5L1359 220" stroke="#ff3333" stroke-width="2" fill="none" marker-end="url(#SvgjsMarker1558)"></path></g><g id="SvgjsG1560"><path id="SvgjsPath1561" d="M1309 195L1273.25 195L1273.25 195L1237.5 195" stroke="#ff3333" stroke-width="2" fill="none" marker-end="url(#SvgjsMarker1562)"></path></g><g id="SvgjsG1564" transform="translate(969.75,357)"><path id="SvgjsPath1565" d="M 0 0L 116.5 0L 132.5 16L 132.5 44L 0 44L 0 0Z" stroke="none" fill-opacity="1" fill="#ff9999"></path><path id="SvgjsPath1566" d="M 116.5 0L 116.5 16L 132.5 16Z" stroke="none" fill-opacity="1" fill="#cdcdcd"></path><path id="SvgjsPath1567" d="M 0 0L 116.5 0L 132.5 16L 132.5 44L 0 44L 0 0Z" stroke="none" fill="none"></path><g id="SvgjsG1568"><text id="SvgjsText1569" font-family="微软雅黑" text-anchor="middle" font-size="13px" width="91" fill="#323232" font-weight="400" align="middle" anchor="middle" family="微软雅黑" size="13px" weight="400" font-style="" y="4.05" transform="rotate(0)"><tspan id="SvgjsTspan1570" dy="16" x="66.5"><tspan id="SvgjsTspan1571" style="text-decoration:;">git branch </tspan></tspan><tspan id="SvgjsTspan1572" dy="16" x="66.5"><tspan id="SvgjsTspan1573" style="text-decoration:;">new-branch</tspan></tspan></text></g></g><g id="SvgjsG1574" transform="translate(723,861)"><path id="SvgjsPath1575" d="M 0 37.5C 0 -12.5 81 -12.5 81 37.5C 81 87.5 0 87.5 0 37.5Z" stroke="#323232" stroke-width="2" fill-opacity="1" fill="#ffffff"></path><g id="SvgjsG1576"><text id="SvgjsText1577" font-family="微软雅黑" text-anchor="middle" font-size="13px" width="58" fill="#323232" font-weight="400" align="middle" anchor="middle" family="微软雅黑" size="13px" weight="400" font-style="" y="27.55" transform="rotate(0)"><tspan id="SvgjsTspan1578" dy="16" x="40.5"><tspan id="SvgjsTspan1579" style="text-decoration:;">commit</tspan></tspan></text></g></g><g id="SvgjsG1580" transform="translate(584.5,855.5)"><path id="SvgjsPath1581" d="M 45.75 0L 91.5 72L 0 72Z" stroke="#323232" stroke-width="2" fill-opacity="1" fill="#ffffff"></path><g id="SvgjsG1582"><text id="SvgjsText1583" font-family="微软雅黑" text-anchor="middle" font-size="13px" width="30" fill="#323232" font-weight="400" align="middle" anchor="middle" family="微软雅黑" size="13px" weight="400" font-style="" y="35.05" transform="rotate(0)"><tspan id="SvgjsTspan1584" dy="16" x="46"><tspan id="SvgjsTspan1585" style="text-decoration:;">tree</tspan></tspan></text></g></g><g id="SvgjsG1586"><path id="SvgjsPath1587" d="M1186.5 242.5L1186.5 269.25L1186.5 269.25L1186.5 296" stroke="#ff3333" stroke-width="2" fill="none" marker-end="url(#SvgjsMarker1588)"></path></g><g id="SvgjsG1590"><path id="SvgjsPath1591" d="M878 132L878 172.5L755.5 172.5" stroke="#3333ff" stroke-width="2" fill="none" marker-end="url(#SvgjsMarker1592)"></path></g><g id="SvgjsG1594"><path id="SvgjsPath1595" d="M672 107L750 107L750 107L828 107" stroke="#3333ff" stroke-width="2" fill="none" marker-end="url(#SvgjsMarker1596)"></path></g><g id="SvgjsG1598" transform="translate(439,867.5)"><path id="SvgjsPath1599" d="M 0 0L 87 0L 87 56L 0 56Z" stroke="#323232" stroke-width="2" fill-opacity="1" fill="#ffffff"></path><g id="SvgjsG1600"><text id="SvgjsText1601" font-family="微软雅黑" text-anchor="middle" font-size="13px" width="35" fill="#323232" font-weight="400" align="middle" anchor="middle" family="微软雅黑" size="13px" weight="400" font-style="" y="18.05" transform="rotate(0)"><tspan id="SvgjsTspan1602" dy="16" x="43.5"><tspan id="SvgjsTspan1603" style="text-decoration:;">blob</tspan></tspan></text></g></g><g id="SvgjsG1604" transform="translate(118,747)"><path id="SvgjsPath1605" d="M 0 0L 421 0L 437 16L 437 66L 0 66L 0 0Z" stroke="none" fill-opacity="1" fill="#ffffaa"></path><path id="SvgjsPath1606" d="M 421 0L 421 16L 437 16Z" stroke="none" fill-opacity="1" fill="#cdcdcd"></path><path id="SvgjsPath1607" d="M 0 0L 421 0L 437 16L 437 66L 0 66L 0 0Z" stroke="none" fill="none"></path><g id="SvgjsG1608"><text id="SvgjsText1609" font-family="微软雅黑" text-anchor="middle" font-size="13px" width="385" fill="#323232" font-weight="400" align="middle" anchor="middle" family="微软雅黑" size="13px" weight="400" font-style="" y="23.05" transform="rotate(0)"><tspan id="SvgjsTspan1610" dy="16" x="218.5"><tspan id="SvgjsTspan1611" style="text-decoration:;">两个文件。file1 和 file2 里面内容分别是：111 和 222</tspan></tspan></text></g></g><g id="SvgjsG1612" transform="translate(572,752)"><path id="SvgjsPath1613" d="M 0 0L 359.5 0L 375.5 16L 375.5 64L 0 64L 0 0Z" stroke="none" fill-opacity="1" fill="#ffffaa"></path><path id="SvgjsPath1614" d="M 359.5 0L 359.5 16L 375.5 16Z" stroke="none" fill-opacity="1" fill="#cdcdcd"></path><path id="SvgjsPath1615" d="M 0 0L 359.5 0L 375.5 16L 375.5 64L 0 64L 0 0Z" stroke="none" fill="none"></path><g id="SvgjsG1616"><text id="SvgjsText1617" font-family="微软雅黑" text-anchor="middle" font-size="13px" width="246" fill="#323232" font-weight="400" align="middle" anchor="middle" family="微软雅黑" size="13px" weight="400" font-style="" y="22.05" transform="rotate(0)"><tspan id="SvgjsTspan1618" dy="16" x="188"><tspan id="SvgjsTspan1619" style="text-decoration:;">两个文件。file1 的内容改为： 333</tspan></tspan></text></g></g><g id="SvgjsG1620" transform="translate(974,752)"><path id="SvgjsPath1621" d="M 0 0L 474 0L 490 16L 490 64L 0 64L 0 0Z" stroke="none" fill-opacity="1" fill="#ffffaa"></path><path id="SvgjsPath1622" d="M 474 0L 474 16L 490 16Z" stroke="none" fill-opacity="1" fill="#cdcdcd"></path><path id="SvgjsPath1623" d="M 0 0L 474 0L 490 16L 490 64L 0 64L 0 0Z" stroke="none" fill="none"></path><g id="SvgjsG1624"><text id="SvgjsText1625" font-family="微软雅黑" text-anchor="middle" font-size="13px" width="293" fill="#323232" font-weight="400" align="middle" anchor="middle" family="微软雅黑" size="13px" weight="400" font-style="" y="-9.95" transform="rotate(0)"><tspan id="SvgjsTspan1626" dy="16" x="245"><tspan id="SvgjsTspan1627" style="text-decoration:;"> </tspan></tspan><tspan id="SvgjsTspan1628" dy="16" x="245"><tspan id="SvgjsTspan1629" style="text-decoration:;">1. git branch new-branch 新建一个分支</tspan></tspan><tspan id="SvgjsTspan1630" dy="16" x="245"><tspan id="SvgjsTspan1631" style="text-decoration:;">2. git checkout new-branch 切换分支  </tspan></tspan><tspan id="SvgjsTspan1632" dy="16" x="245"><tspan id="SvgjsTspan1633" style="text-decoration:;">3.新加一个文件 file3，里面内容是 file3  </tspan></tspan><tspan id="SvgjsTspan1634" dy="16" x="245"><tspan id="SvgjsTspan1635" style="text-decoration:;"> </tspan></tspan></text></g></g><g id="SvgjsG1636" transform="translate(118,861.75)"><path id="SvgjsPath1637" d="M 0 0L 231 0L 247 16L 247 73.5L 0 73.5L 0 0Z" stroke="none" fill-opacity="1" fill="#ffffaa"></path><path id="SvgjsPath1638" d="M 231 0L 231 16L 247 16Z" stroke="none" fill-opacity="1" fill="#cdcdcd"></path><path id="SvgjsPath1639" d="M 0 0L 231 0L 247 16L 247 73.5L 0 73.5L 0 0Z" stroke="none" fill="none"></path><g id="SvgjsG1640"><text id="SvgjsText1641" font-family="微软雅黑" text-anchor="middle" font-size="13px" width="189" fill="#323232" font-weight="400" align="middle" anchor="middle" family="微软雅黑" size="13px" weight="400" font-style="" y="26.8" transform="rotate(0)"><tspan id="SvgjsTspan1642" dy="16" x="123.5"><tspan id="SvgjsTspan1643" style="text-decoration:;">.git/objects 下的 obj 类型</tspan></tspan></text></g></g></svg>